<svg xmlns="http://www.w3.org/2000/svg" width="526" height="216" fill="none" viewBox="0 0 526 216"><path fill="#fafafa" d="M0 0h72.303v13.242H0zm40.429 19.921v12.07H31.99l4.805 5.977q1.992 2.46 4.101 5.156a155 155 0 0 1 3.633 4.336l1.523 1.757-.234-.82q-.117-.82-.352-3.398-.117-2.695-.117-7.852V5.86h19.922v69.373H45.35v-12.07l.703-1.875-13.007-15.82a221 221 0 0 0-2.93-3.632 1254 1254 0 0 0-4.335-5.508v13.71q0 1.642.703 2.227.702.585 1.992.586h16.171q1.29 0 1.992-.586.704-.586.703-2.226l1.641 7.851q0 3.984-1.406 6.094-1.407 2.109-6.445 2.109H21.21q-7.5 0-11.484-3.281-3.866-3.4-3.866-11.602V32.46q0-6.445 3.399-9.492t13.007-3.047z"/><path fill="#fafafa" d="M62.594 74.295q6.445 0 10.664 1.406 4.218 1.524 7.265 4.453 3.046 3.046 5.86 7.617l13.241 21.445h-23.32l-12.07-19.101q-.937-1.64-2.109-2.11-1.172-.468-3.047-.468h-3.047q-2.226 0-2.93.586-.702.702-.702 3.046v1.055q0 2.226.703 2.93.703.703 2.93.703h5.624v13.359H47.83q-7.5 0-11.367-3.399-3.984-3.28-3.985-11.484v-5.156q0-8.202 3.985-11.601 3.867-3.28 11.367-3.281zM148.301 9.61h19.922v41.6q0 8.202-4.219 11.6-4.101 3.282-14.648 3.282h-10.078q-10.547 0-14.765-3.281-4.101-3.399-4.101-11.601V37.147q0-6.444 3.398-9.491 3.398-3.048 13.007-3.047h51.796V37.85h-47.694q-1.29 0-1.992.586-.703.468-.703 1.757v9.844q0 1.64.82 2.226.82.585 2.109.586h4.219q1.288 0 2.109-.586.82-.586.82-2.226zm29.062.937h19.921v64.685h-19.921zM114.552 0h89.764v13.242h-89.764zM253.53 0h34.452q9.375 0 13.242 3.984 3.984 3.984 3.985 10.547v9.609q0 4.57-1.172 7.968-1.055 3.399-4.453 5.274 3.398 1.523 4.453 4.57 1.172 3.046 1.172 7.5v11.25q0 6.562-3.985 10.546-3.867 3.984-13.242 3.984H253.53zm31.523 59.178V46.874q0-1.29-.703-1.875-.703-.703-2.227-.703h-8.437v17.46h8.437q1.524 0 2.227-.586.702-.703.703-1.992m0-30.937V16.054q0-1.29-.703-1.875-.703-.703-2.227-.703h-8.437V30.82h8.437q1.524 0 2.227-.586.702-.704.703-1.993m121.873 21.211v14.53H369.31v-14.53zm12.891 25.78h-20.625l-11.249-52.85-11.602 52.85h-20.155L375.521 0h24.96zm83.125-41.834V17.226q0-1.29-.703-1.875-.703-.703-2.226-.703h-21.796V0h28.007q9.374 0 13.241 3.984 3.985 3.984 3.985 10.547v21.562q0 6.562-3.985 10.546-3.867 3.985-13.241 3.985h-28.007V35.976h21.796q1.523 0 2.226-.586.703-.704.703-1.992M471.42 0h20.507v75.232H471.42zM8.617 119.547h43.939q11.956 0 16.888 5.081 5.08 5.081 5.081 13.451v12.255q0 5.828-1.494 10.163-1.345 4.334-5.68 6.725 4.335 1.942 5.68 5.829 1.494 3.885 1.494 9.565v14.347q0 8.37-5.081 13.451-4.933 5.08-16.888 5.081H8.616zm40.202 75.473v-15.692q0-1.644-.896-2.392-.897-.896-2.84-.896h-10.76v22.268h10.76q1.943 0 2.84-.747.896-.897.896-2.541m0-39.455v-15.543q0-1.644-.896-2.392-.897-.897-2.84-.896h-10.76v22.119h10.76q1.943 0 2.84-.748.896-.897.896-2.54m136.154 4.035v-18.084q0-1.644-.897-2.391-.897-.897-2.839-.897h-4.932v-18.681h12.853q11.956 0 16.888 5.081 5.08 5.081 5.081 13.451V159.6zm0 33.926v-35.869h26.154v39.306q0 8.37-5.081 13.451-4.933 5.08-16.888 5.081h-12.853v-18.682h4.932q1.942 0 2.839-.747.897-.897.897-2.54m-13.75-52.01V159.6h-26.154v-21.521q0-8.37 4.932-13.451 5.082-5.082 17.038-5.081h12.852v18.681h-4.931q-1.944 0-2.84.897-.897.747-.897 2.391m0 16.141v35.869q0 1.643.897 2.54.897.747 2.84.747h4.931v18.682h-12.852q-11.956 0-17.038-5.081-4.932-5.082-4.932-13.451v-39.306zm164.251 37.064H317.54l-11.807-39.904v60.678h-23.315v-95.948h28.546l15.543 51.262 15.543-51.262h28.545v95.948H347.43v-60.977zm97.938-75.174h92.212v16.888h-92.212zm51.561 25.406v15.394h-10.76l6.127 7.622a509 509 0 0 1 5.231 6.576q2.84 3.288 4.633 5.53l1.943 2.242-.299-1.047q-.15-1.046-.448-4.334-.15-3.437-.15-10.013v-39.904h25.407v88.476H491.25v-15.394l.897-2.391-16.589-20.176q-1.046-1.345-3.737-4.633a1536 1536 0 0 0-5.529-7.024v17.486q0 2.092.896 2.839.897.748 2.541.748h20.624q1.644 0 2.541-.748.897-.747.897-2.839l2.092 10.013q0 5.082-1.793 7.772-1.794 2.69-8.22 2.69h-25.407q-9.565 0-14.646-4.185-4.932-4.334-4.932-14.796v-23.912q0-8.22 4.334-12.106t16.589-3.886z"/><path fill="#fafafa" d="m494.71 89.507 21.371 30.488h-24.51a90.4 90.4 0 0 1-9.565-8.818q-4.484-4.782-8.967-10.461l-8.668-11.21z"/></svg>