<svg width="472" height="520" viewBox="0 0 472 520" fill="none" xmlns="http://www.w3.org/2000/svg">
<g filter="url(#filter0_n_303_8383)">
<g filter="url(#filter1_g_303_8383)">
<path fill-rule="evenodd" clip-rule="evenodd" d="M360.771 199.355L360.942 198.944L359.475 193.65L359.495 193.637C361.744 192.328 362.988 190.061 362.866 187.489L362.604 181.896C362.58 181.364 362.61 180.908 362.706 180.383L365.175 166.854L368.267 168.779V181.134L368.43 181.775L368.267 187.872L369.152 187.438C370.934 186.559 372.132 185.139 372.685 183.251L373.964 178.881C374.191 178.106 374.27 177.41 374.222 176.604L373.151 158.671L372.044 158.095C369.215 156.622 365.84 157.22 363.706 159.57L360.942 162.614C359.646 164.042 358.001 164.803 356.056 164.868L355.826 164.877C352.319 164.999 349.315 162.542 348.784 159.123L348.532 157.489C348.335 156.212 347.856 155.164 347.015 154.17L345.801 152.733L339.29 156.746L337.491 154.321C336.612 153.135 335.527 152.354 334.113 151.889L333.92 151.825C332.18 151.253 330.883 150.172 330.022 148.578L329.891 148.334C328.334 145.452 325.013 144.086 321.841 145.025L318.801 145.924C317.883 146.195 317.05 146.271 316.097 146.171L309.822 145.513L311.847 141.875C312.36 140.954 312.618 140.068 312.682 139.018L313.46 126.131C313.534 124.9 313.882 123.859 314.566 122.826L318.207 117.331C318.603 116.734 318.863 116.172 319.062 115.486L320.356 111.023C320.826 109.403 320.708 107.861 319.993 106.33L318.288 102.673V102.31C318.288 102.227 318.29 102.156 318.292 102.072L318.535 95.2501C318.589 93.7553 318.211 92.4584 317.361 91.2178L314.47 86.9949C314.293 86.737 314.158 86.5099 314.018 86.2339L310.963 80.2109L311.125 79.4081L314.87 73.9518L315.301 73.5286C315.454 73.3761 315.581 73.2398 315.721 73.0745L317.634 70.8114C318.926 69.2838 320.629 68.4556 322.645 68.3775L323.66 68.3375L324.117 72.9855C324.139 73.2125 324.149 73.4087 324.149 73.6376C324.149 73.8501 324.149 74.0608 324.149 74.2733L329.847 79.7295V80.3707L326.754 85.8252L326.59 86.3065L326.102 95.2919C326.102 95.3391 326.102 95.3846 326.102 95.43C326.102 96.3345 326.253 97.1082 326.594 97.9492L327.405 99.9453L332.69 97.8838C334.379 97.2245 335.604 96.091 336.38 94.4727L343.309 79.9911C343.344 79.9203 343.372 79.8585 343.405 79.7859L346.58 72.5296C346.831 71.9557 346.98 71.438 347.071 70.8187L348.103 63.8421C348.2 63.1737 348.368 62.6143 348.652 61.9985L350.62 57.7574C350.778 57.4123 350.939 57.1308 351.153 56.8148L351.173 56.7838L350.613 55.9338C348.698 53.0223 344.913 52.0069 341.765 53.5581L337.499 55.6614V48.9228L334.121 50.8898C333.979 50.9716 333.859 51.0479 333.722 51.1387L331.312 52.7734L330.335 46.3545L329.211 45.6788C327.482 44.6435 326.399 43.0978 326.025 41.138L325.159 36.5826C325.136 36.4591 325.118 36.3538 325.101 36.2303L324.801 33.9998L318.603 38.3208C318.268 38.5533 318.001 38.775 317.713 39.0601L317.476 39.2944H313.515C312.321 39.2944 311.298 39.5505 310.246 40.1099L303.687 43.6009C303.652 43.6191 303.621 43.6354 303.586 43.6536L295.604 47.7313C295.075 48.0037 294.594 48.1781 294.014 48.3125L285.297 50.3341C284.246 50.5775 283.301 50.5847 282.249 50.3577L261.472 45.8731L259.732 47.0883C258.282 48.1 256.693 48.4977 254.928 48.2852L252.191 47.9601L252.093 47.8802C251.594 47.4879 251.124 47.2081 250.538 46.9575L247.634 45.7133L247.307 45.0722L246.819 41.3813L239.82 40.9L240.074 43.6681C240.231 45.3628 239.812 46.8703 238.801 48.2508L238.192 49.0826H237.702L229.4 44.9105L226.796 51.3294L215.807 41.2106C214.86 40.3388 213.839 39.812 212.573 39.5396L204.13 37.7305C203.474 37.5906 202.899 37.5489 202.23 37.5907L195.539 38.012L195.045 38.4734C193.276 40.1299 190.955 40.7238 188.593 40.1244L186.584 39.6159H186.096L182.677 46.5143C182.57 46.8558 182.557 47.1355 182.521 47.3661C182.428 47.9456 182.412 48.4487 182.465 49.0335L182.841 53.093L183.33 53.5744L186.096 58.5494L175.352 61.7588L169.012 63.6187C168.104 63.8857 167.374 64.2671 166.639 64.8556L162.49 68.1759L162.166 68.817L162.048 69.3365C161.543 71.5797 160.08 73.2852 157.92 74.1498C155.758 75.0126 153.504 74.7946 151.556 73.5341L137.982 64.7448C137.701 64.5632 137.453 64.4252 137.15 64.2835L112.837 52.9332L114.671 59.0325C115.185 60.7453 115.039 62.3927 114.229 63.991L113.366 65.6893C113.11 66.1924 112.944 66.6483 112.815 67.1969L111.534 72.6695V73.02C111.534 73.1109 111.536 73.1889 111.54 73.2816L111.698 77.3229L109.634 79.1992C109.608 79.2228 109.586 79.2428 109.56 79.2682C109.36 79.4553 108.93 79.7405 108.93 80.0493L110.283 84.8498C110.475 85.5291 110.55 86.134 110.532 86.8387L110.395 92.0842L110.069 92.5638L106 95.2919L110.814 102.768C111.202 103.373 111.455 103.938 111.645 104.628L113.488 111.337V111.98L111.444 117.249C111.376 117.424 111.313 117.571 111.232 117.74C111.138 117.934 111.053 118.118 111.044 118.308C111.038 118.441 111.031 118.555 111.018 118.688L110.721 121.607L115.279 120.163L116.433 121.56C117.096 122.368 117.511 123.184 117.767 124.192L118.373 126.58C118.169 127.383 118.331 127.103 117.885 127.543L114.26 129.717C114.175 129.768 114.105 129.813 114.022 129.868L113.652 130.111L113.545 133.28C113.506 134.412 113.711 135.387 114.203 136.41L114.955 137.972C114.955 137.974 114.958 137.974 114.96 137.974C115.791 138.192 116.536 138.25 117.393 138.168L121.875 137.734C123.568 137.571 124.973 136.902 126.156 135.694L128.791 132.999L129.171 133.371C130.134 134.321 130.721 135.373 131.019 136.684L132.681 144.006C132.917 145.045 132.914 145.982 132.67 147.021L131.021 154.019C130.942 154.355 130.896 154.646 130.866 154.989L130.499 159.318L360.771 199.355Z" fill="black"/>
<path fill-rule="evenodd" clip-rule="evenodd" d="M340.077 262.604L340.225 262.177L342.238 243.718C342.301 243.156 342.409 242.682 342.603 242.149L345.028 235.461C345.172 235.058 345.267 234.703 345.337 234.28L345.397 233.922L352.565 220.593C353.676 218.528 353.672 216.244 352.554 214.181L352.027 213.211L354.605 211.799C356.029 211.019 357.012 209.921 357.629 208.429L358.4 206.557C359.21 204.591 359.093 202.57 358.061 200.71C357.029 198.851 355.37 197.674 353.264 197.305L131.959 158.536L131.216 158.832C130.731 159.024 130.336 159.233 129.906 159.524L126.849 161.594C124.682 163.061 122.052 163.194 119.746 161.954L119.528 161.836L116.133 165.369L120.335 171.79L118.234 174.198L120.659 178.051C120.983 178.051 121.305 178.051 121.629 178.051L121.953 181.102L124.788 182.903C125.623 183.434 126.24 184.036 126.79 184.855L127.934 186.56L128.097 187.042L128.258 191.376C127.973 191.754 127.75 191.981 127.552 192.314C127.446 192.494 127.349 192.643 127.226 192.812L125.833 194.748L126.725 199.467C126.944 200.636 126.876 201.686 126.505 202.817L125.118 207.051C124.883 207.762 124.781 208.402 124.781 209.151V212.247L129.82 212.391C130.253 212.404 130.625 212.38 131.055 212.315L134.644 211.768C135.484 210.932 134.884 211.629 135.272 210.841C135.288 210.808 135.303 210.781 135.318 210.748L138.039 205.023L136.61 202.273C135.832 200.778 135.642 199.246 136.031 197.608L136.099 197.317H139.899C141.78 197.317 143.398 197.984 144.729 199.304L147.094 201.652C147.108 201.679 147.121 201.708 147.136 201.737C147.641 202.768 148.292 203.544 149.22 204.224L153.842 207.611C154.435 208.046 154.881 208.493 155.313 209.085L161.456 217.487C161.814 217.976 162.065 218.432 162.288 218.995L168.306 234.24C168.398 234.467 168.464 234.665 168.53 234.902L173.206 251.616C173.261 251.818 173.318 251.987 173.391 252.183L175.501 257.768C175.975 259.026 176.069 260.22 175.792 261.534L173.9 270.552C173.81 270.984 173.698 271.344 173.53 271.751L170.376 279.357L170.049 279.721C168.579 281.366 168.023 283.405 168.456 285.56L169.613 291.307C169.694 291.707 169.734 292.056 169.745 292.463L170.052 304.401L170.73 305.375C172.152 307.413 172.36 309.859 171.304 312.105L168.526 318.016C168.462 318.152 168.405 318.265 168.334 318.395L165.922 322.788C165.014 324.438 164.831 326.183 165.374 327.984L165.524 328.484L172.397 327.915C173.017 327.864 173.541 327.751 174.127 327.544L178.688 325.927C181.018 325.102 182.614 323.262 183.091 320.853L183.552 318.53L187.757 318.45L188.679 324.547C188.712 324.775 188.732 324.971 188.745 325.198L188.787 325.998L340.077 262.604Z" fill="black"/>
<path fill-rule="evenodd" clip-rule="evenodd" d="M170.566 482.687L166.967 480.104L163.296 483.062C161.631 484.401 160.754 486.226 160.754 488.346V489.627L160.098 489.79L153.883 484.785L150.777 487.206C150.354 487.957 150.168 488.817 150.129 489.678C150.105 490.166 150.042 490.583 149.919 491.058L148.527 496.411C148.501 496.514 148.479 496.601 148.459 496.707C148.386 497.044 148.327 497.277 148.274 497.451C147.913 498.631 147.872 499.72 148.146 500.923L150.521 511.338C150.582 511.605 150.621 511.837 150.651 512.107C150.704 512.613 150.749 512.686 151.102 513.194L154.539 514C154.729 514 154.92 514 155.111 514C157.014 514 158.651 513.331 159.997 512.003L165.332 506.737C165.732 506.044 165.623 506.039 165.69 505.785C165.795 505.377 165.856 505.021 165.888 504.601L166.293 499.412C166.308 499.229 166.313 499.072 166.313 498.889C166.313 498.867 166.313 498.845 166.313 498.823C166.313 497.716 166.541 496.766 167.043 495.774L168.276 493.34L170.729 492.532C171.029 492.55 171.266 492.645 171.451 492.81C172.156 493.433 172.867 493.848 173.76 494.158L174.654 494.471L179.603 488.816C180.347 487.966 180.808 487.087 181.08 485.996C181.193 485.547 181.332 485.099 181.445 484.648C181.513 484.372 181.584 484.14 181.686 483.875L182.904 480.668C182.954 480.538 182.993 480.427 183.033 480.295C183.307 479.424 183.978 478.854 184.7 478.126C184.963 477.862 185.168 477.619 185.386 477.317L186.757 475.424L187.019 474.646C187.066 474.512 187.106 474.399 187.16 474.269L188.065 472.035L188.719 472.356L194.443 477.522L198.368 474.616C198.368 474.277 198.341 474.127 198.352 473.986C198.409 473.306 198.374 472.722 198.235 472.055L197.348 467.788C197.261 467.37 197.156 467.021 196.995 466.626L196.897 466.383L197.619 463.129C197.843 462.118 198.228 461.294 198.861 460.47C199.018 460.264 199.152 460.015 199.35 459.604L200.168 457.183C200.19 456.421 200.249 456.24 200.02 455.941C199.6 455.391 199.309 454.87 199.065 454.225L198.533 452.825C198.533 451.999 198.472 451.976 198.859 451.212L199.677 450.081V449.436L196.571 445.885L197.715 443.625C198.683 443.625 198.835 443.676 199.085 443.928C199.574 444.422 200.053 444.782 200.666 445.116L201.477 445.562L199.514 442.01L203.93 445.562L204.421 446.53L212.108 452.504L212.572 447.314C212.591 447.104 212.598 446.925 212.598 446.713V446.37L212.356 446.088C210.736 444.208 208.418 443.371 205.954 443.777L205.892 443.786L205.728 443.302L203.491 441.02C201.782 439.278 201.157 436.976 201.753 434.623L202.416 432.011C202.558 431.443 202.621 430.943 202.621 430.356C202.621 430.153 202.621 429.947 202.621 429.744L204.584 426.192H205.074L206.383 425.87C206.648 424.979 206.546 424.551 206.546 423.61V417.154C206.657 416.232 207.1 415.66 207.631 414.945C207.925 414.551 208.21 414.24 208.579 413.911L209.654 412.957L207.692 406.5L212.108 405.855L212.926 402.142L211.128 401.115C210.223 400.598 209.547 399.988 208.945 399.146L207.855 397.623L208.509 397.3L213.341 398.522C214.142 398.725 214.796 399.016 215.483 399.471C215.553 399.518 215.651 399.54 215.868 399.56L217.521 399.655C218.791 399.728 219.896 399.504 221.031 398.941C221.155 398.879 221.287 398.817 221.429 398.753L222.738 396.492C222.124 395.058 221.265 394.038 220.226 392.92C219.919 392.588 219.683 392.281 219.445 391.899L216.36 386.969V386.746C216.36 386.563 216.353 386.406 216.34 386.224L216.197 384.393C215.99 381.752 217.23 379.384 219.532 378.021L222.411 376.316H221.592L220.12 368.406L224.045 369.214C225.075 368.993 224.799 368.88 225.377 368.103C225.499 367.941 225.595 367.798 225.702 367.626L225.826 367.425C226.817 365.825 228.25 364.794 230.098 364.354L237.457 362.596L239.584 363.888C240.906 363.996 241.139 363.531 242.115 363.199C242.481 363.075 242.787 362.943 243.129 362.762L244.014 362.294C246.021 361.233 247.277 359.455 247.593 357.231L248.043 354.072C248.291 352.323 247.915 350.737 246.908 349.279L242.805 343.346C241.848 341.963 241.467 340.478 241.637 338.813L242.376 331.623C242.48 330.607 242.761 329.757 243.281 328.875L243.672 328.215L246.779 329.023V337.267C246.779 338.583 247.103 339.71 247.799 340.832L251.862 347.375C252.631 348.614 252.955 349.882 252.87 351.333L252.54 356.954C252.514 357.399 252.457 357.779 252.348 358.212L252.34 358.238L249.724 363.08V363.725L251.02 368.841C251.028 368.876 251.035 368.905 251.044 368.942L252.201 373.822C252.622 375.595 253.601 376.976 255.143 377.972L257.574 379.545C258.505 379.18 259.274 378.893 260.186 378.489C260.297 378.44 260.39 378.396 260.499 378.341L267.492 374.827C268.756 374.193 270.01 373.97 271.419 374.131L273.601 374.38L275.727 381.643L280.47 380.029L279.652 372.927L286.396 373.683C286.713 373.718 286.981 373.766 287.291 373.842L287.504 373.895L292.632 372.466C293.498 372.227 294.2 371.882 294.918 371.346L336.395 340.456C337.41 339.699 338.104 338.822 338.598 337.666L347.202 317.574C347.539 316.781 347.705 316.053 347.74 315.195L348.614 293.909C348.653 292.965 348.522 292.148 348.188 291.262L344.908 282.535L338.693 284.635L337.221 279.953L346.217 278.822L345.511 276.176C344.911 273.927 343.36 272.263 341.138 271.484L334.442 269.138L335.258 266.88L343.601 267.201L342.092 259.077L195.177 320.263C192.668 321.308 191.091 323.538 190.961 326.224L190.857 328.371C190.843 328.665 190.846 328.915 190.87 329.207C190.894 329.523 190.904 329.591 190.706 329.825C190.317 330.285 190.033 330.722 189.772 331.265L187.084 336.851C187.045 336.944 187.012 337.03 186.981 337.11C186.695 337.87 186.338 338.477 185.814 339.098L182.88 342.572C182.659 342.835 182.454 343.045 182.197 343.273C181.852 343.58 181.645 343.719 181.421 344C180.823 344.757 180.179 345.3 179.331 345.766L178.018 346.485C176.944 347.074 175.891 347.342 174.663 347.342H173.673H173.63C173.09 347.342 172.627 347.291 172.099 347.172L169.257 346.537V345.89L166.745 339.966C166.445 339.259 166.089 338.696 165.578 338.119L162.009 334.077L161.102 334.455L162.907 343.737C163.001 344.227 163.038 344.653 163.029 345.15L162.881 353.091C162.879 353.135 162.879 353.173 162.879 353.217V353.8L161.57 358.965L161.563 358.989C161.454 359.311 161.341 359.579 161.187 359.883L157.721 366.725C157.218 367.716 156.992 368.666 156.992 369.775V374.944L157.155 375.589L160.261 380.917L158.299 383.391C157.623 384.245 157.214 385.107 156.984 386.167L156.336 389.149C156.521 389.602 156.523 389.677 156.629 389.67C156.953 389.65 157.231 389.65 157.553 389.67L161.898 389.957L162.224 390.441L161.733 396.735C161.163 397.983 161.47 397.479 160.426 398.51L158.299 399.156H157.808L153.72 393.991L152.248 396.251L152.378 398.047C152.51 399.864 151.989 401.472 150.815 402.875L148.014 406.226C147.435 406.918 147.053 407.605 146.772 408.462L145.215 413.199L148.322 416.104L141.781 422.238L143.58 426.435L136.289 430.288C135.018 430.961 134.107 431.869 133.435 433.13L132.059 435.719C131.333 437.082 131.106 438.46 131.356 439.982L131.968 443.706L132.457 444.029L133.603 446.611V446.947C133.603 447.051 133.605 447.139 133.609 447.243L133.766 450.808L133.929 451.292L137.2 452.1L137.713 446.666C137.811 445.626 138.095 444.753 138.63 443.852L141.781 438.54L144.926 438.206C146.854 437.999 148.436 437.129 149.631 435.62L149.773 435.439C151.737 432.956 155.044 432.125 157.973 433.38L163.349 435.684C164.801 436.305 165.864 437.256 166.634 438.619L169.892 444.387C170.135 444.813 170.301 445.198 170.449 445.663L173.836 456.297V456.779L169.916 464.052C169.803 464.263 169.716 464.446 169.624 464.669C169.489 464.993 169.309 465.396 169.107 465.645C168.902 465.904 168.742 466.135 168.572 466.418L167.295 468.563L175.635 474.052L176.167 476.809C176.252 477.251 176.289 477.635 176.289 478.084C176.289 478.139 176.289 478.194 176.289 478.247L175.47 480.184H175.246C174.946 480.184 174.689 480.169 174.391 480.131L172.201 479.862L170.566 482.687Z" fill="black"/>
</g>
<g clip-path="url(#clip0_303_8383)" filter="url(#filter2_g_303_8383)">
<mask id="mask0_303_8383" style="mask-type:alpha" maskUnits="userSpaceOnUse" x="109" y="34" width="254" height="480">
<path fill-rule="evenodd" clip-rule="evenodd" d="M350.011 199.355L350.173 198.944L348.788 193.65L348.807 193.637C350.93 192.328 352.104 190.061 351.989 187.489L351.742 181.896C351.72 181.364 351.747 180.908 351.838 180.383L354.169 166.854L357.088 168.779V181.134L357.241 181.775L357.088 187.872L357.923 187.438C359.606 186.559 360.736 185.139 361.258 183.251L362.466 178.881C362.68 178.106 362.755 177.41 362.709 176.604L361.698 158.671L360.653 158.095C357.983 156.622 354.797 157.22 352.783 159.57L350.173 162.614C348.95 164.042 347.396 164.803 345.561 164.868L345.344 164.877C342.033 164.999 339.197 162.542 338.696 159.123L338.458 157.489C338.272 156.212 337.82 155.164 337.026 154.17L335.88 152.733L329.733 156.746L328.035 154.321C327.206 153.135 326.181 152.354 324.847 151.889L324.664 151.825C323.022 151.253 321.797 150.172 320.985 148.578L320.861 148.334C319.391 145.452 316.256 144.086 313.262 145.025L310.392 145.924C309.525 146.195 308.739 146.271 307.839 146.171L301.916 145.513L303.828 141.875C304.311 140.954 304.555 140.068 304.616 139.018L305.35 126.131C305.42 124.9 305.748 123.859 306.394 122.826L309.831 117.331C310.205 116.734 310.451 116.172 310.639 115.486L311.86 111.023C312.303 109.403 312.192 107.861 311.517 106.33L309.908 102.673V102.31C309.908 102.227 309.91 102.156 309.911 102.072L310.141 95.2501C310.191 93.7553 309.835 92.4584 309.033 91.2178L306.303 86.9949C306.136 86.737 306.009 86.5099 305.877 86.2339L302.993 80.2109L303.146 79.4081L306.681 73.9518L307.088 73.5286C307.232 73.3761 307.352 73.2398 307.485 73.0745L309.29 70.8114C310.51 69.2838 312.117 68.4556 314.021 68.3775L314.979 68.3375L315.411 72.9855C315.431 73.2125 315.44 73.4087 315.44 73.6376C315.44 73.8501 315.44 74.0608 315.44 74.2733L320.819 79.7295V80.3707L317.9 85.8252L317.745 86.3065L317.284 95.2919C317.284 95.3391 317.284 95.3846 317.284 95.43C317.284 96.3345 317.427 97.1082 317.749 97.9492L318.514 99.9453L323.504 97.8838C325.097 97.2245 326.254 96.091 326.986 94.4727L333.528 79.9911C333.561 79.9203 333.587 79.8585 333.618 79.7859L336.616 72.5296C336.852 71.9557 336.993 71.438 337.078 70.8187L338.053 63.8421C338.145 63.1737 338.303 62.6143 338.571 61.9985L340.429 57.7574C340.579 57.4123 340.73 57.1308 340.932 56.8148L340.951 56.7838L340.422 55.9338C338.615 53.0223 335.041 52.0069 332.07 53.5581L328.042 55.6614V48.9228L324.854 50.8898C324.72 50.9716 324.607 51.0479 324.478 51.1387L322.202 52.7734L321.28 46.3545L320.219 45.6788C318.587 44.6435 317.564 43.0978 317.211 41.138L316.393 36.5826C316.373 36.4591 316.355 36.3538 316.34 36.2303L316.056 33.9998L310.205 38.3208C309.889 38.5533 309.637 38.775 309.365 39.0601L309.141 39.2944H305.402C304.275 39.2944 303.309 39.5505 302.316 40.1099L296.124 43.6009C296.091 43.6191 296.062 43.6354 296.029 43.6536L288.494 47.7313C287.995 48.0037 287.541 48.1781 286.993 48.3125L278.764 50.3341C277.772 50.5775 276.88 50.5847 275.887 50.3577L256.273 45.8731L254.631 47.0883C253.262 48.1 251.762 48.4977 250.096 48.2852L247.512 47.9601L247.42 47.8802C246.949 47.4879 246.505 47.2081 245.952 46.9575L243.21 45.7133L242.902 45.0722L242.441 41.3813L235.834 40.9L236.074 43.6681C236.222 45.3628 235.827 46.8703 234.872 48.2508L234.298 49.0826H233.835L225.997 44.9105L223.539 51.3294L213.166 41.2106C212.271 40.3388 211.308 39.812 210.112 39.5396L202.143 37.7305C201.523 37.5906 200.981 37.5489 200.349 37.5907L194.032 38.012L193.566 38.4734C191.896 40.1299 189.706 40.7238 187.475 40.1244L185.579 39.6159H185.118L181.891 46.5143C181.79 46.8558 181.778 47.1355 181.743 47.3661C181.656 47.9456 181.641 48.4487 181.691 49.0335L182.046 53.093L182.507 53.5744L185.118 58.5494L174.976 61.7588L168.991 63.6187C168.134 63.8857 167.445 64.2671 166.751 64.8556L162.835 68.1759L162.528 68.817L162.417 69.3365C161.94 71.5797 160.559 73.2852 158.52 74.1498C156.479 75.0126 154.352 74.7946 152.513 73.5341L139.698 64.7448C139.434 64.5632 139.199 64.4252 138.914 64.2835L115.962 52.9332L117.693 59.0325C118.178 60.7453 118.041 62.3927 117.276 63.991L116.461 65.6893C116.22 66.1924 116.063 66.6483 115.941 67.1969L114.732 72.6695V73.02C114.732 73.1109 114.734 73.1889 114.737 73.2816L114.887 77.3229L112.938 79.1992C112.914 79.2228 112.893 79.2428 112.869 79.2682C112.679 79.4553 112.274 79.7405 112.274 80.0493L113.551 84.8498C113.732 85.5291 113.803 86.134 113.786 86.8387L113.657 92.0842L113.349 92.5638L109.508 95.2919L114.052 102.768C114.419 103.373 114.657 103.938 114.836 104.628L116.576 111.337V111.98L114.647 117.249C114.582 117.424 114.523 117.571 114.447 117.74C114.358 117.934 114.278 118.118 114.269 118.308C114.264 118.441 114.257 118.555 114.245 118.688L113.965 121.607L118.267 120.163L119.356 121.56C119.982 122.368 120.374 123.184 120.616 124.192L121.188 126.58C120.995 127.383 121.148 127.103 120.727 127.543L117.305 129.717C117.225 129.768 117.159 129.813 117.081 129.868L116.731 130.111L116.63 133.28C116.594 134.412 116.787 135.387 117.251 136.41L117.961 137.972C117.961 137.974 117.964 137.974 117.966 137.974C118.751 138.192 119.454 138.25 120.263 138.168L124.494 137.734C126.092 137.571 127.418 136.902 128.535 135.694L131.023 132.999L131.381 133.371C132.291 134.321 132.844 135.373 133.126 136.684L134.695 144.006C134.918 145.045 134.914 145.982 134.685 147.021L133.128 154.019C133.053 154.355 133.009 154.646 132.981 154.989L132.635 159.318L350.011 199.355Z" fill="black"/>
<path fill-rule="evenodd" clip-rule="evenodd" d="M330.481 262.604L330.621 262.177L332.522 243.718C332.58 243.156 332.682 242.682 332.866 242.149L335.155 235.461C335.291 235.058 335.381 234.703 335.447 234.28L335.504 233.922L342.27 220.593C343.319 218.528 343.315 216.244 342.259 214.181L341.762 213.211L344.196 211.799C345.54 211.019 346.468 209.921 347.051 208.429L347.778 206.557C348.543 204.591 348.433 202.57 347.458 200.71C346.484 198.851 344.918 197.674 342.93 197.305L134.018 158.536L133.317 158.832C132.859 159.024 132.486 159.233 132.08 159.524L129.194 161.594C127.149 163.061 124.666 163.194 122.489 161.954L122.283 161.836L119.078 165.369L123.045 171.79L121.062 174.198L123.351 178.051C123.657 178.051 123.961 178.051 124.267 178.051L124.572 181.102L127.249 182.903C128.037 183.434 128.619 184.036 129.139 184.855L130.219 186.56L130.373 187.042L130.525 191.376C130.255 191.754 130.044 191.981 129.858 192.314C129.757 192.494 129.666 192.643 129.55 192.812L128.235 194.748L129.077 199.467C129.284 200.636 129.22 201.686 128.869 202.817L127.56 207.051C127.339 207.762 127.242 208.402 127.242 209.151V212.247L131.998 212.391C132.408 212.404 132.759 212.38 133.165 212.315L136.553 211.768C137.346 210.932 136.779 211.629 137.145 210.841C137.161 210.808 137.175 210.781 137.189 210.748L139.758 205.023L138.408 202.273C137.674 200.778 137.494 199.246 137.862 197.608L137.926 197.317H141.513C143.289 197.317 144.817 197.984 146.073 199.304L148.305 201.652C148.319 201.679 148.331 201.708 148.345 201.737C148.822 202.768 149.437 203.544 150.313 204.224L154.675 207.611C155.235 208.046 155.657 208.493 156.065 209.085L161.863 217.487C162.202 217.976 162.438 218.432 162.649 218.995L168.33 234.24C168.416 234.467 168.479 234.665 168.541 234.902L172.955 251.616C173.007 251.818 173.061 251.987 173.13 252.183L175.122 257.768C175.569 259.026 175.657 260.22 175.397 261.534L173.61 270.552C173.525 270.984 173.42 271.344 173.261 271.751L170.284 279.357L169.975 279.721C168.587 281.366 168.062 283.405 168.472 285.56L169.564 291.307C169.64 291.707 169.678 292.056 169.688 292.463L169.978 304.401L170.618 305.375C171.96 307.413 172.157 309.859 171.16 312.105L168.537 318.016C168.477 318.152 168.423 318.265 168.356 318.395L166.079 322.788C165.222 324.438 165.049 326.183 165.562 327.984L165.704 328.484L172.192 327.915C172.777 327.864 173.271 327.751 173.824 327.544L178.13 325.927C180.329 325.102 181.836 323.262 182.287 320.853L182.722 318.53L186.691 318.45L187.562 324.547C187.593 324.775 187.612 324.971 187.624 325.198L187.664 325.998L330.481 262.604Z" fill="black"/>
<path fill-rule="evenodd" clip-rule="evenodd" d="M170.459 482.687L167.061 480.104L163.595 483.062C162.024 484.401 161.196 486.226 161.196 488.346V489.627L160.577 489.79L154.71 484.785L151.777 487.206C151.379 487.957 151.202 488.817 151.166 489.678C151.143 490.166 151.083 490.583 150.968 491.058L149.654 496.411C149.629 496.514 149.608 496.601 149.589 496.707C149.521 497.044 149.465 497.277 149.414 497.451C149.074 498.631 149.035 499.72 149.294 500.923L151.536 511.338C151.594 511.605 151.63 511.837 151.658 512.107C151.709 512.613 151.751 512.686 152.085 513.194L155.329 514C155.509 514 155.689 514 155.869 514C157.665 514 159.21 513.331 160.481 512.003L165.518 506.737C165.895 506.044 165.792 506.039 165.855 505.785C165.955 505.377 166.012 505.021 166.042 504.601L166.425 499.412C166.439 499.229 166.444 499.072 166.444 498.889C166.444 498.867 166.444 498.845 166.444 498.823C166.444 497.716 166.659 496.766 167.133 495.774L168.297 493.34L170.612 492.532C170.896 492.55 171.119 492.645 171.294 492.81C171.96 493.433 172.631 493.848 173.473 494.158L174.318 494.471L178.989 488.816C179.692 487.966 180.127 487.087 180.384 485.996C180.49 485.547 180.622 485.099 180.728 484.648C180.793 484.372 180.859 484.14 180.955 483.875L182.105 480.668C182.153 480.538 182.189 480.427 182.228 480.295C182.486 479.424 183.119 478.854 183.801 478.126C184.049 477.862 184.243 477.619 184.449 477.317L185.742 475.424L185.991 474.646C186.034 474.512 186.073 474.399 186.123 474.269L186.978 472.035L187.595 472.356L192.999 477.522L196.704 474.616C196.704 474.277 196.678 474.127 196.688 473.986C196.742 473.306 196.709 472.722 196.578 472.055L195.741 467.788C195.659 467.37 195.559 467.021 195.407 466.626L195.315 466.383L195.996 463.129C196.208 462.118 196.571 461.294 197.169 460.47C197.317 460.264 197.443 460.015 197.63 459.604L198.403 457.183C198.424 456.421 198.48 456.24 198.263 455.941C197.866 455.391 197.592 454.87 197.361 454.225L196.86 452.825C196.86 451.999 196.802 451.976 197.167 451.212L197.94 450.081V449.436L195.007 445.885L196.087 443.625C197.001 443.625 197.144 443.676 197.38 443.928C197.842 444.422 198.294 444.782 198.873 445.116L199.638 445.562L197.786 442.01L201.954 445.562L202.417 446.53L209.674 452.504L210.112 447.314C210.13 447.104 210.137 446.925 210.137 446.713V446.37L209.908 446.088C208.379 444.208 206.191 443.371 203.864 443.777L203.807 443.786L203.651 443.302L201.54 441.02C199.927 439.278 199.336 436.976 199.899 434.623L200.524 432.011C200.659 431.443 200.718 430.943 200.718 430.356C200.718 430.153 200.718 429.947 200.718 429.744L202.571 426.192H203.034L204.27 425.87C204.52 424.979 204.424 424.551 204.424 423.61V417.154C204.529 416.232 204.946 415.66 205.448 414.945C205.726 414.551 205.995 414.24 206.343 413.911L207.358 412.957L205.505 406.5L209.674 405.855L210.446 402.142L208.749 401.115C207.895 400.598 207.257 399.988 206.689 399.146L205.659 397.623L206.276 397.3L210.838 398.522C211.595 398.725 212.211 399.016 212.86 399.471C212.926 399.518 213.019 399.54 213.223 399.56L214.784 399.655C215.983 399.728 217.026 399.504 218.098 398.941C218.215 398.879 218.339 398.817 218.473 398.753L219.709 396.492C219.129 395.058 218.318 394.038 217.337 392.92C217.047 392.588 216.825 392.281 216.6 391.899L213.688 386.969V386.746C213.688 386.563 213.681 386.406 213.669 386.224L213.534 384.393C213.339 381.752 214.51 379.384 216.682 378.021L219.4 376.316H218.627L217.238 368.406L220.943 369.214C221.915 368.993 221.654 368.88 222.2 368.103C222.315 367.941 222.406 367.798 222.507 367.626L222.624 367.425C223.559 365.825 224.912 364.794 226.656 364.354L233.603 362.596L235.612 363.888C236.859 363.996 237.08 363.531 238.001 363.199C238.347 363.075 238.635 362.943 238.958 362.762L239.794 362.294C241.688 361.233 242.873 359.455 243.172 357.231L243.597 354.072C243.831 352.323 243.476 350.737 242.526 349.279L238.653 343.346C237.749 341.963 237.389 340.478 237.55 338.813L238.247 331.623C238.345 330.607 238.611 329.757 239.102 328.875L239.47 328.215L242.403 329.023V337.267C242.403 338.583 242.709 339.71 243.366 340.832L247.202 347.375C247.928 348.614 248.234 349.882 248.153 351.333L247.842 356.954C247.818 357.399 247.763 357.779 247.66 358.212L247.653 358.238L245.184 363.08V363.725L246.407 368.841C246.414 368.876 246.421 368.905 246.43 368.942L247.522 373.822C247.919 375.595 248.843 376.976 250.299 377.972L252.594 379.545C253.473 379.18 254.198 378.893 255.06 378.489C255.165 378.44 255.252 378.396 255.355 378.341L261.957 374.827C263.15 374.193 264.333 373.97 265.663 374.131L267.724 374.38L269.73 381.643L274.208 380.029L273.436 372.927L279.802 373.683C280.101 373.718 280.355 373.766 280.647 373.842L280.848 373.895L285.689 372.466C286.507 372.227 287.169 371.882 287.847 371.346L327.001 340.456C327.959 339.699 328.614 338.822 329.081 337.666L337.203 317.574C337.521 316.781 337.678 316.053 337.711 315.195L338.536 293.909C338.573 292.965 338.449 292.148 338.134 291.262L335.037 282.535L329.17 284.635L327.781 279.953L336.273 278.822L335.607 276.176C335.041 273.927 333.576 272.263 331.479 271.484L325.157 269.138L325.928 266.88L333.803 267.201L332.379 259.077L193.691 320.263C191.323 321.308 189.834 323.538 189.711 326.224L189.614 328.371C189.6 328.665 189.603 328.915 189.626 329.207C189.648 329.523 189.657 329.591 189.47 329.825C189.103 330.285 188.836 330.722 188.589 331.265L186.052 336.851C186.015 336.944 185.984 337.03 185.954 337.11C185.685 337.87 185.347 338.477 184.853 339.098L182.083 342.572C181.875 342.835 181.681 343.045 181.438 343.273C181.113 343.58 180.917 343.719 180.705 344C180.141 344.757 179.533 345.3 178.732 345.766L177.493 346.485C176.479 347.074 175.485 347.342 174.326 347.342H173.391H173.351C172.841 347.342 172.404 347.291 171.906 347.172L169.223 346.537V345.89L166.851 339.966C166.568 339.259 166.233 338.696 165.75 338.119L162.381 334.077L161.524 334.455L163.228 343.737C163.317 344.227 163.352 344.653 163.344 345.15L163.204 353.091C163.202 353.135 163.202 353.173 163.202 353.217V353.8L161.966 358.965L161.959 358.989C161.856 359.311 161.75 359.579 161.605 359.883L158.333 366.725C157.858 367.716 157.644 368.666 157.644 369.775V374.944L157.798 375.589L160.731 380.917L158.878 383.391C158.24 384.245 157.854 385.107 157.637 386.167L157.026 389.149C157.2 389.602 157.202 389.677 157.302 389.67C157.608 389.65 157.87 389.65 158.174 389.67L162.276 389.957L162.583 390.441L162.12 396.735C161.582 397.983 161.872 397.479 160.886 398.51L158.878 399.156H158.415L154.556 393.991L153.167 396.251L153.289 398.047C153.413 399.864 152.922 401.472 151.814 402.875L149.17 406.226C148.623 406.918 148.263 407.605 147.997 408.462L146.527 413.199L149.46 416.104L143.285 422.238L144.984 426.435L138.101 430.288C136.901 430.961 136.041 431.869 135.407 433.13L134.108 435.719C133.423 437.082 133.208 438.46 133.444 439.982L134.022 443.706L134.484 444.029L135.566 446.611V446.947C135.566 447.051 135.567 447.139 135.571 447.243L135.719 450.808L135.873 451.292L138.961 452.1L139.445 446.666C139.538 445.626 139.805 444.753 140.311 443.852L143.285 438.54L146.255 438.206C148.074 437.999 149.568 437.129 150.695 435.62L150.83 435.439C152.684 432.956 155.806 432.125 158.571 433.38L163.646 435.684C165.016 436.305 166.019 437.256 166.746 438.619L169.822 444.387C170.051 444.813 170.209 445.198 170.348 445.663L173.545 456.297V456.779L169.845 464.052C169.739 464.263 169.656 464.446 169.569 464.669C169.441 464.993 169.272 465.396 169.081 465.645C168.887 465.904 168.737 466.135 168.576 466.418L167.37 468.563L175.244 474.052L175.745 476.809C175.826 477.251 175.861 477.635 175.861 478.084C175.861 478.139 175.861 478.194 175.861 478.247L175.088 480.184H174.877C174.594 480.184 174.351 480.169 174.069 480.131L172.002 479.862L170.459 482.687Z" fill="black"/>
</mask>
<g mask="url(#mask0_303_8383)">
<mask id="mask1_303_8383" style="mask-type:luminance" maskUnits="userSpaceOnUse" x="-175" y="-9" width="748" height="546">
<path d="M572.063 -9H-174.641V537H572.063V-9Z" fill="white"/>
</mask>
<g mask="url(#mask1_303_8383)">
<path d="M578.571 332.308C578.571 332.308 554.677 347.596 476.273 368.89C397.869 390.184 239.357 436.047 227.516 440.415C215.673 444.783 206.348 473.589 210.479 486.726C214.61 499.862 232.646 543.063 232.646 543.063" stroke="black" stroke-width="3" stroke-miterlimit="10" stroke-linecap="round" stroke-linejoin="round"/>
<path d="M-182.32 257.506C-182.32 257.506 -83.0087 280.438 -53.1405 289.174C-23.2724 297.91 58.544 329.578 82.2265 337.768C105.909 345.958 202.232 379.81 202.232 379.81L238.123 480.888L251.247 478.461L219.556 510.948" stroke="black" stroke-width="3" stroke-miterlimit="10" stroke-linecap="round" stroke-linejoin="round"/>
<path d="M161.836 226.729C161.836 226.729 209.074 194.717 216.481 185.981C223.889 177.245 241.809 135.749 258.984 134.111C276.158 132.473 380.696 125.375 392.644 128.651C404.591 131.927 462.087 153.767 477.021 154.859C491.955 155.951 559.905 153.767 578.573 151.583" stroke="black" stroke-width="3" stroke-miterlimit="10" stroke-linecap="round" stroke-linejoin="round"/>
<path d="M-182.32 303.37C-182.32 303.37 -102.423 295.18 -54.6339 286.444C-6.84488 277.708 117.762 251.5 131.996 244.948C146.229 238.396 155.05 225.838 165.574 226.384C176.098 226.93 317.225 278.254 340.372 273.886C363.52 269.518 468.059 237.85 578.571 236.212" stroke="black" stroke-width="4" stroke-miterlimit="10" stroke-linecap="round" stroke-linejoin="round"/>
<path d="M444.915 14.9299C444.915 14.9299 377.711 16.1759 353.07 15.0839C328.429 13.9919 317.228 18.9059 303.041 23.8199C288.853 28.7338 191.782 52.2117 149.22 62.0396C106.658 71.8676 -8.18238 102.039 -8.18238 102.039L-107.876 42.2003L-174.641 -9" stroke="black" stroke-width="4" stroke-miterlimit="10" stroke-linecap="round" stroke-linejoin="round"/>
</g>
</g>
</g>
</g>
<defs>
<filter id="filter0_n_303_8383" x="0" y="0" width="472" height="514" filterUnits="userSpaceOnUse" color-interpolation-filters="sRGB">
<feFlood flood-opacity="0" result="BackgroundImageFix"/>
<feBlend mode="normal" in="SourceGraphic" in2="BackgroundImageFix" result="shape"/>
<feTurbulence type="fractalNoise" baseFrequency="1.1111111640930176 1.1111111640930176" stitchTiles="stitch" numOctaves="3" result="noise" seed="8398" />
<feColorMatrix in="noise" type="luminanceToAlpha" result="alphaNoise" />
<feComponentTransfer in="alphaNoise" result="coloredNoise1">
<feFuncA type="discrete" tableValues="1 1 1 1 1 1 1 1 1 1 1 1 1 1 1 1 1 1 1 1 1 1 1 1 1 1 1 1 1 1 1 1 1 1 1 1 1 1 1 1 1 1 1 1 1 1 1 1 1 1 1 0 0 0 0 0 0 0 0 0 0 0 0 0 0 0 0 0 0 0 0 0 0 0 0 0 0 0 0 0 0 0 0 0 0 0 0 0 0 0 0 0 0 0 0 0 0 0 0 0 "/>
</feComponentTransfer>
<feComposite operator="in" in2="shape" in="coloredNoise1" result="noise1Clipped" />
<feFlood flood-color="rgba(0, 0, 0, 0.15)" result="color1Flood" />
<feComposite operator="in" in2="noise1Clipped" in="color1Flood" result="color1" />
<feMerge result="effect1_noise_303_8383">
<feMergeNode in="shape" />
<feMergeNode in="color1" />
</feMerge>
</filter>
<filter id="filter1_g_303_8383" x="105" y="33" width="270.234" height="482" filterUnits="userSpaceOnUse" color-interpolation-filters="sRGB">
<feFlood flood-opacity="0" result="BackgroundImageFix"/>
<feBlend mode="normal" in="SourceGraphic" in2="BackgroundImageFix" result="shape"/>
<feTurbulence type="fractalNoise" baseFrequency="0.99900001287460327 0.99900001287460327" numOctaves="3" seed="1635" />
<feDisplacementMap in="shape" scale="2" xChannelSelector="R" yChannelSelector="G" result="displacedImage" width="100%" height="100%" />
<feMerge result="effect1_texture_303_8383">
<feMergeNode in="displacedImage"/>
</feMerge>
</filter>
<filter id="filter2_g_303_8383" x="-20" y="-20" width="512" height="540" filterUnits="userSpaceOnUse" color-interpolation-filters="sRGB">
<feFlood flood-opacity="0" result="BackgroundImageFix"/>
<feBlend mode="normal" in="SourceGraphic" in2="BackgroundImageFix" result="shape"/>
<feTurbulence type="fractalNoise" baseFrequency="0.0099999997764825821 0.0099999997764825821" numOctaves="3" seed="2527" />
<feDisplacementMap in="shape" scale="40" xChannelSelector="R" yChannelSelector="G" result="displacedImage" width="100%" height="100%" />
<feMerge result="effect1_texture_303_8383">
<feMergeNode in="displacedImage"/>
</feMerge>
</filter>
<clipPath id="clip0_303_8383">
<rect width="472" height="500" fill="white"/>
</clipPath>
</defs>
</svg>
