<svg xmlns="http://www.w3.org/2000/svg" width="472" height="520" fill="none" viewBox="0 0 472 520"><g filter="url(#a)"><g fill="#000" fill-rule="evenodd" clip-rule="evenodd" filter="url(#b)"><path d="m360.771 199.355.171-.411-1.467-5.294.02-.013c2.249-1.309 3.493-3.576 3.371-6.148l-.262-5.593a6.4 6.4 0 0 1 .102-1.513l2.469-13.529 3.092 1.925v12.355l.163.641-.163 6.097.885-.434c1.782-.879 2.98-2.299 3.533-4.187l1.279-4.37a6.4 6.4 0 0 0 .258-2.277l-1.071-17.933-1.107-.576c-2.829-1.473-6.204-.875-8.338 1.475l-2.764 3.044c-1.296 1.428-2.941 2.189-4.886 2.254l-.23.009c-3.507.122-6.511-2.335-7.042-5.754l-.252-1.634c-.197-1.277-.676-2.325-1.517-3.319l-1.214-1.437-6.511 4.013-1.799-2.425c-.879-1.186-1.964-1.967-3.378-2.432l-.193-.064q-2.608-.857-3.898-3.247l-.131-.244c-1.557-2.882-4.878-4.248-8.05-3.309l-3.04.899a6.7 6.7 0 0 1-2.704.247l-6.275-.658 2.025-3.638a6.4 6.4 0 0 0 .835-2.857l.778-12.887a6.43 6.43 0 0 1 1.106-3.305l3.641-5.495a6.4 6.4 0 0 0 .855-1.845l1.294-4.463c.47-1.62.352-3.162-.363-4.693l-1.705-3.657v-.363c0-.083.002-.154.004-.238l.243-6.822c.054-1.495-.324-2.792-1.174-4.032l-2.891-4.223a6 6 0 0 1-.452-.761l-3.055-6.023.162-.803 3.745-5.456.431-.423c.153-.153.28-.29.42-.454l1.913-2.264c1.292-1.527 2.995-2.355 5.011-2.434l1.015-.04.457 4.648c.022.228.032.424.032.653v.635l5.698 5.457v.64l-3.093 5.455-.164.481-.488 8.986v.138c0 .904.151 1.678.492 2.52l.811 1.995 5.285-2.061c1.689-.66 2.914-1.793 3.69-3.411l6.929-14.482c.035-.07.063-.132.096-.205l3.175-7.256c.251-.574.4-1.092.491-1.711l1.032-6.977a6.4 6.4 0 0 1 .549-1.843l1.968-4.242a6 6 0 0 1 .533-.942l.02-.031-.56-.85c-1.915-2.912-5.7-3.927-8.848-2.376l-4.266 2.103v-6.738l-3.378 1.967a7 7 0 0 0-.399.249l-2.41 1.634-.977-6.419-1.124-.675c-1.729-1.035-2.812-2.581-3.186-4.541l-.866-4.555a7 7 0 0 1-.058-.353l-.3-2.23-6.198 4.32a6.3 6.3 0 0 0-.89.74l-.237.234h-3.961a6.66 6.66 0 0 0-3.269.816l-6.559 3.49c-.035.02-.066.035-.101.054l-7.982 4.077a6.5 6.5 0 0 1-1.59.581l-8.717 2.022a6.7 6.7 0 0 1-3.048.024l-20.777-4.485-1.74 1.215c-1.45 1.012-3.039 1.41-4.804 1.197l-2.737-.325-.098-.08a6.6 6.6 0 0 0-1.555-.922l-2.904-1.245-.327-.64-.488-3.692-6.999-.481.254 2.768c.157 1.695-.262 3.202-1.273 4.583l-.609.832h-.49L229.4 44.91l-2.604 6.418-10.989-10.118c-.947-.872-1.968-1.399-3.234-1.671l-8.443-1.81a6.7 6.7 0 0 0-1.9-.14l-6.691.422-.494.461c-1.769 1.657-4.09 2.25-6.452 1.651l-2.009-.508h-.488l-3.419 6.898c-.107.342-.12.621-.156.852a6.4 6.4 0 0 0-.056 1.667l.376 4.06.489.481 2.766 4.975-10.744 3.21-6.34 1.86a6.6 6.6 0 0 0-2.373 1.237l-4.149 3.32-.324.641-.118.52c-.505 2.243-1.968 3.948-4.128 4.813-2.162.863-4.416.645-6.364-.616l-13.574-8.79a7 7 0 0 0-.832-.46l-24.313-11.35 1.834 6.099c.514 1.712.368 3.36-.442 4.958l-.863 1.698a6.4 6.4 0 0 0-.551 1.508l-1.281 5.472v.351c0 .09.002.169.006.262l.158 4.04-2.064 1.877-.074.07c-.2.186-.63.471-.63.78l1.353 4.8a6.4 6.4 0 0 1 .249 1.99l-.137 5.245-.326.48L106 95.292l4.814 7.476c.388.605.641 1.17.831 1.86l1.843 6.709v.643l-2.044 5.269a7 7 0 0 1-.212.491c-.094.194-.179.378-.188.568a7 7 0 0 1-.026.38l-.297 2.919 4.558-1.444 1.154 1.397a6.5 6.5 0 0 1 1.334 2.632l.606 2.388c-.204.803-.042.523-.488.963l-3.625 2.174a6 6 0 0 0-.238.151l-.37.243-.107 3.169a6.4 6.4 0 0 0 .658 3.13l.752 1.562q.001.002.005.002a6.7 6.7 0 0 0 2.433.194l4.482-.434c1.693-.163 3.098-.832 4.281-2.04l2.635-2.695.38.372c.963.95 1.55 2.002 1.848 3.313l1.662 7.322a6.4 6.4 0 0 1-.011 3.015l-1.649 6.998a6.5 6.5 0 0 0-.155.97l-.367 4.329z"/><path d="m340.077 262.604.148-.427 2.013-18.459a6.5 6.5 0 0 1 .365-1.569l2.425-6.688c.144-.403.239-.758.309-1.181l.06-.358 7.168-13.329c1.111-2.065 1.107-4.349-.011-6.412l-.527-.97 2.578-1.412c1.424-.78 2.407-1.878 3.024-3.37l.771-1.872c.81-1.966.693-3.987-.339-5.847-1.032-1.859-2.691-3.036-4.797-3.405l-221.305-38.769-.743.296c-.485.192-.88.401-1.31.692l-3.057 2.07c-2.167 1.467-4.797 1.6-7.103.36l-.218-.118-3.395 3.533 4.202 6.421-2.101 2.408 2.425 3.853h.97l.324 3.051 2.835 1.801a6.5 6.5 0 0 1 2.002 1.952l1.144 1.705.163.482.161 4.334c-.285.378-.508.605-.706.938-.106.18-.203.329-.326.498l-1.393 1.936.892 4.719a6.47 6.47 0 0 1-.22 3.35l-1.387 4.234a6.4 6.4 0 0 0-.337 2.1v3.096l5.039.144c.433.013.805-.011 1.235-.076l3.589-.547c.84-.836.24-.139.628-.927.016-.033.031-.06.046-.093l2.721-5.725-1.429-2.75c-.778-1.495-.968-3.027-.579-4.665l.068-.291h3.8c1.881 0 3.499.667 4.83 1.987l2.365 2.348.042.085a6.5 6.5 0 0 0 2.084 2.487l4.622 3.387a6.5 6.5 0 0 1 1.471 1.474l6.143 8.402c.358.489.609.945.832 1.508l6.018 15.245c.092.227.158.425.224.662l4.676 16.714c.055.202.112.371.185.567l2.11 5.585c.474 1.258.568 2.452.291 3.766l-1.892 9.018c-.09.432-.202.792-.37 1.199l-3.154 7.606-.327.364c-1.47 1.645-2.026 3.684-1.593 5.839l1.157 5.747c.081.4.121.749.132 1.156l.307 11.938.678.974c1.422 2.038 1.63 4.484.574 6.73l-2.778 5.911a7 7 0 0 1-.192.379l-2.412 4.393c-.908 1.65-1.091 3.395-.548 5.196l.15.5 6.873-.569a6.6 6.6 0 0 0 1.73-.371l4.561-1.617c2.33-.825 3.926-2.665 4.403-5.074l.461-2.323 4.205-.08.922 6.097c.033.228.053.424.066.651l.042.8z"/><path d="m170.566 482.687-3.599-2.583-3.671 2.958c-1.665 1.339-2.542 3.164-2.542 5.284v1.281l-.656.163-6.215-5.005-3.106 2.421c-.423.751-.609 1.611-.648 2.472a6.5 6.5 0 0 1-.21 1.38l-1.392 5.353c-.026.103-.048.19-.068.296-.073.337-.132.57-.185.744a6.45 6.45 0 0 0-.128 3.472l2.375 10.415c.061.267.1.499.13.769.053.506.098.579.451 1.087l3.437.806h.572c1.903 0 3.54-.669 4.886-1.997l5.335-5.266c.4-.693.291-.698.358-.952.105-.408.166-.764.198-1.184l.405-5.189c.015-.183.02-.34.02-.523v-.066c0-1.107.228-2.057.73-3.049l1.233-2.434 2.453-.808c.3.018.537.113.722.278a6.6 6.6 0 0 0 2.309 1.348l.894.313 4.949-5.655a6.5 6.5 0 0 0 1.477-2.82c.113-.449.252-.897.365-1.348.068-.276.139-.508.241-.773l1.218-3.207c.05-.13.089-.241.129-.373.274-.871.945-1.441 1.667-2.169.263-.264.468-.507.686-.809l1.371-1.893.262-.778c.047-.134.087-.247.141-.377l.905-2.234.654.321 5.724 5.166 3.925-2.906c0-.339-.027-.489-.016-.63a6.4 6.4 0 0 0-.117-1.931l-.887-4.267a6.4 6.4 0 0 0-.353-1.162l-.098-.243.722-3.254a6.5 6.5 0 0 1 1.242-2.659c.157-.206.291-.455.489-.866l.818-2.421c.022-.762.081-.943-.148-1.242a6.5 6.5 0 0 1-.955-1.716l-.532-1.4c0-.826-.061-.849.326-1.613l.818-1.131v-.645l-3.106-3.551 1.144-2.26c.968 0 1.12.051 1.37.303.489.494.968.854 1.581 1.188l.811.446-1.963-3.552 4.416 3.552.491.968 7.687 5.974.464-5.19a6 6 0 0 0 .026-.601v-.343l-.242-.282c-1.62-1.88-3.938-2.717-6.402-2.311l-.062.009-.164-.484-2.237-2.282c-1.709-1.742-2.334-4.044-1.738-6.397l.663-2.612a6.5 6.5 0 0 0 .205-1.655v-.612l1.963-3.552h.49l1.309-.322c.265-.891.163-1.319.163-2.26v-6.456c.111-.922.554-1.494 1.085-2.209a6.6 6.6 0 0 1 .948-1.034l1.075-.954-1.962-6.457 4.416-.645.818-3.713-1.798-1.027a6.6 6.6 0 0 1-2.183-1.969l-1.09-1.523.654-.323 4.832 1.222a6.7 6.7 0 0 1 2.142.949c.07.047.168.069.385.089l1.653.095a6.7 6.7 0 0 0 3.51-.714q.185-.093.398-.188l1.309-2.261c-.614-1.434-1.473-2.454-2.512-3.572a6.5 6.5 0 0 1-.781-1.021l-3.085-4.93v-.223c0-.183-.007-.34-.02-.522l-.143-1.831c-.207-2.641 1.033-5.009 3.335-6.372l2.879-1.705h-.819l-1.472-7.91 3.925.808c1.03-.221.754-.334 1.332-1.111.122-.162.218-.305.325-.477l.124-.201c.991-1.6 2.424-2.631 4.272-3.071l7.359-1.758 2.127 1.292c1.322.108 1.555-.357 2.531-.689a6.6 6.6 0 0 0 1.014-.437l.885-.468c2.007-1.061 3.263-2.839 3.579-5.063l.45-3.159c.248-1.749-.128-3.335-1.135-4.793l-4.103-5.933c-.957-1.383-1.338-2.868-1.168-4.533l.739-7.19a6.5 6.5 0 0 1 .905-2.748l.391-.66 3.107.808v8.244c0 1.316.324 2.443 1.02 3.565l4.063 6.543c.769 1.239 1.093 2.507 1.008 3.958l-.33 5.621a6.5 6.5 0 0 1-.192 1.258l-.008.026-2.616 4.842v.645l1.296 5.116.024.101 1.157 4.88q.63 2.658 2.942 4.15l2.431 1.573c.931-.365 1.7-.652 2.612-1.056.111-.049.204-.093.313-.148l6.993-3.514c1.264-.634 2.518-.857 3.927-.696l2.182.249 2.126 7.263 4.743-1.614-.818-7.102 6.744.756c.317.035.585.083.895.159l.213.053 5.128-1.429a6.6 6.6 0 0 0 2.286-1.12l41.477-30.89c1.015-.757 1.709-1.634 2.203-2.79l8.604-20.092a6.5 6.5 0 0 0 .538-2.379l.874-21.286a6.4 6.4 0 0 0-.426-2.647l-3.28-8.727-6.215 2.1-1.472-4.682 8.996-1.131-.706-2.646c-.6-2.249-2.151-3.913-4.373-4.692l-6.696-2.346.816-2.258 8.343.321-1.509-8.124-146.915 61.186c-2.509 1.045-4.086 3.275-4.216 5.961l-.104 2.147c-.014.294-.011.544.013.836.024.316.034.384-.164.618-.389.46-.673.897-.934 1.44l-2.688 5.586q-.058.14-.103.259a6.5 6.5 0 0 1-1.167 1.988l-2.934 3.474a6.4 6.4 0 0 1-.683.701c-.345.307-.552.446-.776.727a6.6 6.6 0 0 1-2.09 1.766l-1.313.719a6.7 6.7 0 0 1-3.355.857h-1.033c-.54 0-1.003-.051-1.531-.17l-2.842-.635v-.647l-2.512-5.924a6.5 6.5 0 0 0-1.167-1.847l-3.569-4.042-.907.378 1.805 9.282c.094.49.131.916.122 1.413l-.148 7.941c-.002.044-.002.082-.002.126v.583l-1.309 5.165-.007.024a6.5 6.5 0 0 1-.376.894l-3.466 6.842a6.44 6.44 0 0 0-.729 3.05v5.169l.163.645 3.106 5.328-1.962 2.474a6.5 6.5 0 0 0-1.315 2.776l-.648 2.982c.185.453.187.528.293.521.324-.02.602-.02.924 0l4.345.287.326.484-.491 6.294c-.57 1.248-.263.744-1.307 1.775l-2.127.646h-.491l-4.088-5.165-1.472 2.26.13 1.796q.198 2.725-1.563 4.828l-2.801 3.351a6.5 6.5 0 0 0-1.242 2.236l-1.557 4.737 3.107 2.905-6.541 6.134 1.799 4.197-7.291 3.853c-1.271.673-2.182 1.581-2.854 2.842l-1.376 2.589c-.726 1.363-.953 2.741-.703 4.263l.612 3.724.489.323 1.146 2.582v.336c0 .104.002.192.006.296l.157 3.565.163.484 3.271.808.513-5.434a6.45 6.45 0 0 1 .917-2.814l3.151-5.312 3.145-.334c1.928-.207 3.51-1.077 4.705-2.586l.142-.181c1.964-2.483 5.271-3.314 8.2-2.059l5.376 2.304c1.452.621 2.515 1.572 3.285 2.935l3.258 5.768c.243.426.409.811.557 1.276l3.387 10.634v.482l-3.92 7.273c-.113.211-.2.394-.292.617-.135.324-.315.727-.517.976a7 7 0 0 0-.535.773l-1.277 2.145 8.34 5.489.532 2.757c.085.442.122.826.122 1.275v.163l-.819 1.937h-.224c-.3 0-.557-.015-.855-.053l-2.19-.269z"/></g><g clip-path="url(#c)" filter="url(#d)"><mask id="e" width="254" height="480" x="109" y="34" maskUnits="userSpaceOnUse" style="mask-type:alpha"><path fill="#000" fill-rule="evenodd" d="m350.011 199.355.162-.411-1.385-5.294.019-.013c2.123-1.309 3.297-3.576 3.182-6.148l-.247-5.593a6.8 6.8 0 0 1 .096-1.513l2.331-13.529 2.919 1.925v12.355l.153.641-.153 6.097.835-.434c1.683-.879 2.813-2.299 3.335-4.187l1.208-4.37a6.7 6.7 0 0 0 .243-2.277l-1.011-17.933-1.045-.576c-2.67-1.473-5.856-.875-7.87 1.475l-2.61 3.044c-1.223 1.428-2.777 2.189-4.612 2.254l-.217.009c-3.311.122-6.147-2.335-6.648-5.754l-.238-1.634c-.186-1.277-.638-2.325-1.432-3.319l-1.146-1.437-6.147 4.013-1.698-2.425c-.829-1.186-1.854-1.967-3.188-2.432l-.183-.064q-2.462-.857-3.679-3.247l-.124-.244c-1.47-2.882-4.605-4.248-7.599-3.309l-2.87.899a6 6 0 0 1-2.553.247l-5.923-.658 1.912-3.638a6.7 6.7 0 0 0 .788-2.857l.734-12.887c.07-1.231.398-2.272 1.044-3.305l3.437-5.495a6.6 6.6 0 0 0 .808-1.845l1.221-4.463c.443-1.62.332-3.162-.343-4.693l-1.609-3.657v-.363c0-.083.002-.154.003-.238l.23-6.822c.05-1.495-.306-2.792-1.108-4.032l-2.73-4.223a6.5 6.5 0 0 1-.426-.761l-2.884-6.023.153-.803 3.535-5.456.407-.423c.144-.153.264-.29.397-.454l1.805-2.264c1.22-1.527 2.827-2.355 4.731-2.434l.958-.04.432 4.648c.02.228.029.424.029.653v.635l5.379 5.457v.64l-2.919 5.455-.155.481-.461 8.986v.138c0 .904.143 1.678.465 2.52l.765 1.995 4.99-2.061c1.593-.66 2.75-1.793 3.482-3.411l6.542-14.482c.033-.07.059-.132.09-.205l2.998-7.256a6.7 6.7 0 0 0 .462-1.711l.975-6.977a6.7 6.7 0 0 1 .518-1.843l1.858-4.242c.15-.345.301-.626.503-.942l.019-.031-.529-.85c-1.807-2.912-5.381-3.927-8.352-2.376l-4.028 2.103v-6.738l-3.188 1.967a7 7 0 0 0-.376.249l-2.276 1.634-.922-6.419-1.061-.675c-1.632-1.035-2.655-2.581-3.008-4.541l-.818-4.555c-.02-.124-.038-.23-.053-.353l-.284-2.23-5.851 4.32a6 6 0 0 0-.84.74l-.224.234h-3.739c-1.127 0-2.093.257-3.086.816l-6.192 3.49c-.033.02-.062.035-.095.054l-7.535 4.077a6 6 0 0 1-1.501.581l-8.229 2.022a5.95 5.95 0 0 1-2.877.024l-19.614-4.485-1.642 1.215c-1.369 1.012-2.869 1.41-4.535 1.197l-2.584-.325-.092-.08a6.2 6.2 0 0 0-1.468-.922l-2.742-1.245-.308-.64-.461-3.692-6.607-.481.24 2.768c.148 1.695-.247 3.202-1.202 4.583l-.574.832h-.463l-7.838-4.172-2.458 6.418-10.373-10.118c-.895-.872-1.858-1.399-3.054-1.671l-7.969-1.81a6 6 0 0 0-1.794-.14l-6.317.422-.466.461c-1.67 1.657-3.86 2.25-6.091 1.651l-1.896-.508h-.461l-3.227 6.898c-.101.342-.113.621-.148.852a6.8 6.8 0 0 0-.052 1.667l.355 4.06.461.481 2.611 4.975-10.142 3.21-5.985 1.86a6.1 6.1 0 0 0-2.24 1.237l-3.916 3.32-.307.641-.111.52c-.477 2.243-1.858 3.948-3.897 4.813-2.041.863-4.168.645-6.007-.616l-12.815-8.79a6 6 0 0 0-.784-.46l-22.952-11.35 1.731 6.099c.485 1.712.348 3.36-.417 4.958l-.815 1.698a6.7 6.7 0 0 0-.52 1.508l-1.209 5.472v.351c0 .09.002.169.005.262l.15 4.04-1.949 1.877c-.024.024-.045.044-.069.07-.19.186-.595.471-.595.78l1.277 4.8c.181.68.252 1.285.235 1.99l-.129 5.245-.308.48-3.841 2.728 4.544 7.476c.367.605.605 1.17.784 1.86l1.74 6.709v.643l-1.929 5.269a8 8 0 0 1-.2.491c-.089.194-.169.378-.178.568a7 7 0 0 1-.024.38l-.28 2.919 4.302-1.444 1.089 1.397a6.64 6.64 0 0 1 1.26 2.632l.572 2.388c-.193.803-.04.523-.461.963l-3.422 2.174c-.08.051-.146.096-.224.151l-.35.243-.101 3.169a6.7 6.7 0 0 0 .621 3.13l.71 1.562q.001.002.005.002a5.9 5.9 0 0 0 2.297.194l4.231-.434c1.598-.163 2.924-.832 4.041-2.04l2.488-2.695.358.372c.91.95 1.463 2.002 1.745 3.313l1.569 7.322a6.8 6.8 0 0 1-.01 3.015l-1.557 6.998a7 7 0 0 0-.147.97l-.346 4.329z" clip-rule="evenodd"/><path fill="#000" fill-rule="evenodd" d="m330.481 262.604.14-.427 1.901-18.459c.058-.562.16-1.036.344-1.569l2.289-6.688c.136-.403.226-.758.292-1.181l.057-.358 6.766-13.329c1.049-2.065 1.045-4.349-.011-6.412l-.497-.97 2.434-1.412c1.344-.78 2.272-1.878 2.855-3.37l.727-1.872c.765-1.966.655-3.987-.32-5.847-.974-1.859-2.54-3.036-4.528-3.405l-208.912-38.769-.701.296a6 6 0 0 0-1.237.692l-2.886 2.07c-2.045 1.467-4.528 1.6-6.705.36l-.206-.118-3.205 3.533 3.967 6.421-1.983 2.408 2.289 3.853h.916l.305 3.051 2.677 1.801a6.3 6.3 0 0 1 1.89 1.952l1.08 1.705.154.482.152 4.334c-.27.378-.481.605-.667.938-.101.18-.192.329-.308.498l-1.315 1.936.842 4.719a6.8 6.8 0 0 1-.208 3.35l-1.309 4.234a6.8 6.8 0 0 0-.318 2.1v3.096l4.756.144c.41.013.761-.011 1.167-.076l3.388-.547c.793-.836.226-.139.592-.927.016-.033.03-.06.044-.093l2.569-5.725-1.35-2.75c-.734-1.495-.914-3.027-.546-4.665l.064-.291h3.587c1.776 0 3.304.667 4.56 1.987l2.232 2.348.04.085c.477 1.031 1.092 1.807 1.968 2.487l4.362 3.387c.56.435.982.882 1.39 1.474l5.798 8.402c.339.489.575.945.786 1.508l5.681 15.245c.086.227.149.425.211.662l4.414 16.714c.052.202.106.371.175.567l1.992 5.585a6.84 6.84 0 0 1 .275 3.766l-1.787 9.018c-.085.432-.19.792-.349 1.199l-2.977 7.606-.309.364c-1.388 1.645-1.913 3.684-1.503 5.839l1.092 5.747c.076.4.114.749.124 1.156l.29 11.938.64.974c1.342 2.038 1.539 4.484.542 6.73l-2.623 5.911c-.06.136-.114.249-.181.379l-2.277 4.393c-.857 1.65-1.03 3.395-.517 5.196l.142.5 6.488-.569a5.9 5.9 0 0 0 1.632-.371l4.306-1.617c2.199-.825 3.706-2.665 4.157-5.074l.435-2.323 3.969-.08.871 6.097c.031.228.05.424.062.651l.04.8z" clip-rule="evenodd"/><path fill="#000" fill-rule="evenodd" d="m170.459 482.687-3.398-2.583-3.466 2.958c-1.571 1.339-2.399 3.164-2.399 5.284v1.281l-.619.163-5.867-5.005-2.933 2.421c-.398.751-.575 1.611-.611 2.472a7 7 0 0 1-.198 1.38l-1.314 5.353c-.025.103-.046.19-.065.296a9 9 0 0 1-.175.744 6.8 6.8 0 0 0-.12 3.472l2.242 10.415c.058.267.094.499.122.769.051.506.093.579.427 1.087l3.244.806h.54c1.796 0 3.341-.669 4.612-1.997l5.037-5.266c.377-.693.274-.698.337-.952.1-.408.157-.764.187-1.184l.383-5.189c.014-.183.019-.34.019-.523v-.066a6.8 6.8 0 0 1 .689-3.049l1.164-2.434 2.315-.808c.284.018.507.113.682.278a6.2 6.2 0 0 0 2.179 1.348l.845.313 4.671-5.655a6.6 6.6 0 0 0 1.395-2.82c.106-.449.238-.897.344-1.348.065-.276.131-.508.227-.773l1.15-3.207c.048-.13.084-.241.123-.373.258-.871.891-1.441 1.573-2.169.248-.264.442-.507.648-.809l1.293-1.893.249-.778a7 7 0 0 1 .132-.377l.855-2.234.617.321 5.404 5.166 3.705-2.906c0-.339-.026-.489-.016-.63a6.8 6.8 0 0 0-.11-1.931l-.837-4.267a6.6 6.6 0 0 0-.334-1.162l-.092-.243.681-3.254a6.65 6.65 0 0 1 1.173-2.659c.148-.206.274-.455.461-.866l.773-2.421c.021-.762.077-.943-.14-1.242a6.6 6.6 0 0 1-.902-1.716l-.501-1.4c0-.826-.058-.849.307-1.613l.773-1.131v-.645l-2.933-3.551 1.08-2.26c.914 0 1.057.051 1.293.303.462.494.914.854 1.493 1.188l.765.446-1.852-3.552 4.168 3.552.463.968 7.257 5.974.438-5.19c.018-.21.025-.389.025-.601v-.343l-.229-.282c-1.529-1.88-3.717-2.717-6.044-2.311l-.057.009-.156-.484-2.111-2.282c-1.613-1.742-2.204-4.044-1.641-6.397l.625-2.612a6.8 6.8 0 0 0 .194-1.655v-.612l1.853-3.552h.463l1.236-.322c.25-.891.154-1.319.154-2.26v-6.456c.105-.922.522-1.494 1.024-2.209.278-.394.547-.705.895-1.034l1.015-.954-1.853-6.457 4.169-.645.772-3.713-1.697-1.027a6.34 6.34 0 0 1-2.06-1.969l-1.03-1.523.617-.323 4.562 1.222a6.1 6.1 0 0 1 2.022.949c.066.047.159.069.363.089l1.561.095a6.03 6.03 0 0 0 3.314-.714q.175-.093.375-.188l1.236-2.261c-.58-1.434-1.391-2.454-2.372-3.572a6.5 6.5 0 0 1-.737-1.021l-2.912-4.93v-.223c0-.183-.007-.34-.019-.522l-.135-1.831c-.195-2.641.976-5.009 3.148-6.372l2.718-1.705h-.773l-1.389-7.91 3.705.808c.972-.221.711-.334 1.257-1.111.115-.162.206-.305.307-.477l.117-.201c.935-1.6 2.288-2.631 4.032-3.071l6.947-1.758 2.009 1.292c1.247.108 1.468-.357 2.389-.689a6 6 0 0 0 .957-.437l.836-.468c1.894-1.061 3.079-2.839 3.378-5.063l.425-3.159c.234-1.749-.121-3.335-1.071-4.793l-3.873-5.933c-.904-1.383-1.264-2.868-1.103-4.533l.697-7.19a6.7 6.7 0 0 1 .855-2.748l.368-.66 2.933.808v8.244c0 1.316.306 2.443.963 3.565l3.836 6.543c.726 1.239 1.032 2.507.951 3.958l-.311 5.621a7 7 0 0 1-.182 1.258l-.007.026-2.469 4.842v.645l1.223 5.116.023.101 1.092 4.88q.594 2.658 2.777 4.15l2.295 1.573c.879-.365 1.604-.652 2.466-1.056.105-.049.192-.093.295-.148l6.602-3.514c1.193-.634 2.376-.857 3.706-.696l2.061.249 2.006 7.263 4.478-1.614-.772-7.102 6.366.756c.299.035.553.083.845.159l.201.053 4.841-1.429a6.1 6.1 0 0 0 2.158-1.12l39.154-30.89c.958-.757 1.613-1.634 2.08-2.79l8.122-20.092a6.8 6.8 0 0 0 .508-2.379l.825-21.286a6.8 6.8 0 0 0-.402-2.647l-3.097-8.727-5.867 2.1-1.389-4.682 8.492-1.131-.666-2.646c-.566-2.249-2.031-3.913-4.128-4.692l-6.322-2.346.771-2.258 7.875.321-1.424-8.124-138.688 61.186c-2.368 1.045-3.857 3.275-3.98 5.961l-.097 2.147a6 6 0 0 0 .012.836c.022.316.031.384-.156.618-.367.46-.634.897-.881 1.44l-2.537 5.586-.098.259a6.6 6.6 0 0 1-1.101 1.988l-2.77 3.474a6 6 0 0 1-.645.701c-.325.307-.521.446-.733.727a6.3 6.3 0 0 1-1.973 1.766l-1.239.719a6.03 6.03 0 0 1-3.167.857h-.975c-.51 0-.947-.051-1.445-.17l-2.683-.635v-.647l-2.372-5.924a6.5 6.5 0 0 0-1.101-1.847l-3.369-4.042-.857.378 1.704 9.282c.089.49.124.916.116 1.413l-.14 7.941c-.002.044-.002.082-.002.126v.583l-1.236 5.165-.007.024c-.103.322-.209.59-.354.894l-3.272 6.842a6.75 6.75 0 0 0-.689 3.05v5.169l.154.645 2.933 5.328-1.853 2.474a6.7 6.7 0 0 0-1.241 2.776l-.611 2.982c.174.453.176.528.276.521.306-.02.568-.02.872 0l4.102.287.307.484-.463 6.294c-.538 1.248-.248.744-1.234 1.775l-2.008.646h-.463l-3.859-5.165-1.389 2.26.122 1.796q.186 2.725-1.475 4.828l-2.644 3.351a6.6 6.6 0 0 0-1.173 2.236l-1.47 4.737 2.933 2.905-6.175 6.134 1.699 4.197-6.883 3.853c-1.2.673-2.06 1.581-2.694 2.842l-1.299 2.589c-.685 1.363-.9 2.741-.664 4.263l.578 3.724.462.323 1.082 2.582v.336c0 .104.001.192.005.296l.148 3.565.154.484 3.088.808.484-5.434c.093-1.04.36-1.913.866-2.814l2.974-5.312 2.97-.334c1.819-.207 3.313-1.077 4.44-2.586l.135-.181c1.854-2.483 4.976-3.314 7.741-2.059l5.075 2.304c1.37.621 2.373 1.572 3.1 2.935l3.076 5.768c.229.426.387.811.526 1.276l3.197 10.634v.482l-3.7 7.273a7 7 0 0 0-.276.617c-.128.324-.297.727-.488.976a7 7 0 0 0-.505.773l-1.206 2.145 7.874 5.489.501 2.757c.081.442.116.826.116 1.275v.163l-.773 1.937h-.211c-.283 0-.526-.015-.808-.053l-2.067-.269z" clip-rule="evenodd"/></mask><g mask="url(#e)"><mask id="f" width="748" height="546" x="-175" y="-9" maskUnits="userSpaceOnUse" style="mask-type:luminance"><path fill="#fff" d="M572.063-9h-746.704v546h746.704z"/></mask><g stroke="#000" stroke-linecap="round" stroke-linejoin="round" stroke-miterlimit="10" mask="url(#f)"><path stroke-width="3" d="M578.571 332.308s-23.894 15.288-102.298 36.582-236.916 67.157-248.757 71.525c-11.843 4.368-21.168 33.174-17.037 46.311 4.131 13.136 22.167 56.337 22.167 56.337"/><path stroke-width="3" d="M-182.32 257.506s99.311 22.932 129.18 31.668c29.868 8.736 111.684 40.404 135.367 48.594s120.005 42.042 120.005 42.042l35.891 101.078 13.124-2.427-31.691 32.487m-57.72-284.219s47.238-32.012 54.645-40.748 25.328-50.232 42.503-51.87c17.174-1.638 121.712-8.736 133.66-5.46s69.443 25.116 84.377 26.208 82.884-1.092 101.552-3.276"/><path stroke-width="4" d="M-182.32 303.37s79.897-8.19 127.686-16.926 172.396-34.944 186.63-41.496c14.233-6.552 23.054-19.11 33.578-18.564s151.651 51.87 174.798 47.502c23.148-4.368 127.687-36.036 238.199-37.674M444.915 14.93s-67.204 1.246-91.845.154-35.842 3.822-50.029 8.736S191.782 52.212 149.22 62.04-8.182 102.039-8.182 102.039L-107.876 42.2-174.641-9"/></g></g></g></g><defs><filter id="a" width="472" height="514" x="0" y="0" color-interpolation-filters="sRGB" filterUnits="userSpaceOnUse"><feFlood flood-opacity="0" result="BackgroundImageFix"/><feBlend in="SourceGraphic" in2="BackgroundImageFix" result="shape"/><feTurbulence baseFrequency="1.1111111640930176 1.1111111640930176" numOctaves="3" result="noise" seed="8398" stitchTiles="stitch" type="fractalNoise"/><feColorMatrix in="noise" result="alphaNoise" type="luminanceToAlpha"/><feComponentTransfer in="alphaNoise" result="coloredNoise1"><feFuncA tableValues="1 1 1 1 1 1 1 1 1 1 1 1 1 1 1 1 1 1 1 1 1 1 1 1 1 1 1 1 1 1 1 1 1 1 1 1 1 1 1 1 1 1 1 1 1 1 1 1 1 1 1 0 0 0 0 0 0 0 0 0 0 0 0 0 0 0 0 0 0 0 0 0 0 0 0 0 0 0 0 0 0 0 0 0 0 0 0 0 0 0 0 0 0 0 0 0 0 0 0 0" type="discrete"/></feComponentTransfer><feComposite in="coloredNoise1" in2="shape" operator="in" result="noise1Clipped"/><feFlood flood-color="rgba(0, 0, 0, 0.15)" result="color1Flood"/><feComposite in="color1Flood" in2="noise1Clipped" operator="in" result="color1"/><feMerge result="effect1_noise_303_8383"><feMergeNode in="shape"/><feMergeNode in="color1"/></feMerge></filter><filter id="b" width="270.234" height="482" x="105" y="33" color-interpolation-filters="sRGB" filterUnits="userSpaceOnUse"><feFlood flood-opacity="0" result="BackgroundImageFix"/><feBlend in="SourceGraphic" in2="BackgroundImageFix" result="shape"/><feTurbulence baseFrequency="0.99900001287460327 0.99900001287460327" numOctaves="3" seed="1635" type="fractalNoise"/><feDisplacementMap width="100%" height="100%" in="shape" result="displacedImage" scale="2" xChannelSelector="R" yChannelSelector="G"/><feMerge result="effect1_texture_303_8383"><feMergeNode in="displacedImage"/></feMerge></filter><filter id="d" width="512" height="540" x="-20" y="-20" color-interpolation-filters="sRGB" filterUnits="userSpaceOnUse"><feFlood flood-opacity="0" result="BackgroundImageFix"/><feBlend in="SourceGraphic" in2="BackgroundImageFix" result="shape"/><feTurbulence baseFrequency="0.0099999997764825821 0.0099999997764825821" numOctaves="3" seed="2527" type="fractalNoise"/><feDisplacementMap width="100%" height="100%" in="shape" result="displacedImage" scale="40" xChannelSelector="R" yChannelSelector="G"/><feMerge result="effect1_texture_303_8383"><feMergeNode in="displacedImage"/></feMerge></filter><clipPath id="c"><path fill="#fff" d="M0 0h472v500H0z"/></clipPath></defs></svg>