<svg xmlns="http://www.w3.org/2000/svg" width="234" height="236" fill="none" viewBox="0 0 234 236"><g opacity=".5"><g filter="url(#a)"><path fill="#0a0a0a" d="M6 89.124c10.788 25.453 4.495 47.812 0 55.809 4.966 27.538 13.501 39.643 30.098 54.769 30.082 0 39.936 9.388 49.79 30.252 22.822 6.676 42.012 6.78 60.165 0 15.352-22.116 28.526-27.644 51.865-30.252 17.842-17.108 24.377-28.166 30.082-51.116-12.033-21.698-9.854-38.597 0-58.417-2.904-22.95-12.448-38.598-30.082-54.247-30.082-3.65-40.455-10.951-51.865-29.209-24.896-7.928-38.381-7.3-60.164 0-8.713 20.029-25.414 27.644-48.251 29.209C18.137 50.943 8.09 71.912 6 89.124"/><path stroke="#f3f3f3" stroke-width="2" d="M6 89.124c10.788 25.453 4.495 47.812 0 55.809 4.966 27.538 13.501 39.643 30.098 54.769 30.082 0 39.936 9.388 49.79 30.252 22.822 6.676 42.012 6.78 60.165 0 15.352-22.116 28.526-27.644 51.865-30.252 17.842-17.108 24.377-28.166 30.082-51.116-12.033-21.698-9.854-38.597 0-58.417-2.904-22.95-12.448-38.598-30.082-54.247-30.082-3.65-40.455-10.951-51.865-29.209-24.896-7.928-38.381-7.3-60.164 0-8.713 20.029-25.414 27.644-48.251 29.209C18.137 50.943 8.09 71.912 6 89.124Z"/></g><g filter="url(#b)"><path stroke="#f3f3f3" stroke-width="1.5" d="M189.604 52.865c13.331 0 24.145 10.87 24.145 24.286s-10.814 24.286-24.145 24.286c-13.332 0-24.146-10.87-24.146-24.286s10.814-24.286 24.146-24.286Z"/></g><g filter="url(#c)"><path stroke="#f3f3f3" stroke-width="1.5" d="M116.991 15.311c13.331 0 24.146 10.87 24.146 24.286s-10.815 24.286-24.146 24.286-24.145-10.869-24.145-24.286 10.814-24.286 24.145-24.286Z"/></g><g filter="url(#d)"><ellipse cx="117.081" cy="39.5" fill="#f3f3f3" rx="21" ry="20.5"/><path stroke="#f3f3f3" stroke-width="1.5" d="M117.081 19.75c11.201 0 20.25 8.86 20.25 19.75s-9.049 19.75-20.25 19.75-20.25-8.86-20.25-19.75 9.049-19.75 20.25-19.75Z"/></g><g filter="url(#e)"><path stroke="#f3f3f3" stroke-width="1.5" d="M189.604 135.275c13.331 0 24.145 10.87 24.145 24.286s-10.814 24.286-24.145 24.286c-13.332 0-24.146-10.869-24.146-24.286 0-13.416 10.814-24.286 24.146-24.286Z"/></g><g filter="url(#f)"><path stroke="#f3f3f3" stroke-width="1.5" d="M116.991 171.787c13.331 0 24.146 10.869 24.146 24.286s-10.815 24.286-24.146 24.286-24.145-10.869-24.145-24.286 10.814-24.286 24.145-24.286Z"/></g><g filter="url(#g)"><path stroke="#f3f3f3" stroke-width="1.5" d="M47.492 52.865c13.331 0 24.146 10.87 24.146 24.286s-10.815 24.286-24.146 24.286c-13.33 0-24.145-10.87-24.145-24.286S34.16 52.865 47.492 52.865Z"/></g><g filter="url(#h)"><path stroke="#f3f3f3" stroke-width="1.5" d="M47.492 135.275c13.331 0 24.146 10.87 24.146 24.286s-10.815 24.286-24.146 24.286c-13.33 0-24.145-10.869-24.145-24.286 0-13.416 10.814-24.286 24.145-24.286Z"/></g><g filter="url(#i)"><path stroke="#f3f3f3" stroke-width="2" d="M116.99 81.28c20.067 0 36.344 16.361 36.344 36.555s-16.277 36.554-36.344 36.554c-20.066 0-36.342-16.361-36.342-36.554s16.276-36.554 36.342-36.554Z"/></g></g><path fill="#0a0a0a" d="m111.481 42.703 1.566.521.217 1.132 2.219 1.217h2.871l2.131-1.218.261-1.13 1.522-.522 2.654-3.35-.957-1.435.652-5.35c.383-1.08-.71-2.48-1.305-3.045-1.322-1.81-5.132-2.436-6.872-2.523-3.202.313-5.162 1.812-5.742 2.523-1.566.974-1.667 2.436-1.522 3.045l.739 5.35-1.044 1.435zM113.525 45.921l-.174-1 .827.522-.044.957zM114.439 45.573v1.044l.957.392v-1zM115.7 46.008v1.131h1.001v-1.13zM117.005 46.008v1.131h1.001v-1.13zM118.354 46.008l.043 1.088.826-.479v-1.044zM119.615 45.443v.957l.739-.74v-.74z"/><path stroke="#0a0a0a" d="m111.481 42.703 1.566.521.217 1.132 2.219 1.217h2.871l2.131-1.218.261-1.13 1.522-.522 2.654-3.35-.957-1.435.652-5.35c.383-1.08-.71-2.48-1.305-3.045-1.322-1.81-5.132-2.436-6.872-2.523-3.202.313-5.162 1.812-5.742 2.523-1.566.974-1.667 2.436-1.522 3.045l.739 5.35-1.044 1.435zM113.525 45.921l-.174-1 .827.522-.044.957zM114.439 45.573v1.044l.957.392v-1zM115.7 46.008v1.131h1.001v-1.13zM117.005 46.008v1.131h1.001v-1.13zM118.354 46.008l.043 1.088.826-.479v-1.044zM119.615 45.443v.957l.739-.74v-.74z"/><path fill="#0a0a0a" d="m108.219 39.745 2.348 3.219c-2.505-1.114-5.335-1.16-6.437-1.044-.209-.453.29-1.117.565-1.392.279-.279.232-1.015.174-1.349-.661-1.079-.681-1.435-.609-1.479 0-.8 1.334-.884 2.001-.826-.174 1.566 1.233 2.566 1.958 2.87M112.829 46.487l.827.652c-1.044 0-2.552 1.798-3.176 2.697-.487.592-1.13.42-1.391.261-.522-1.879-1.784-2.407-2.349-2.436-.174-.556.362-1.073.652-1.261 1.636-.07 2.538-.29 2.784-.392l2.305-1z"/><path stroke="#0a0a0a" d="m108.219 39.745 2.348 3.219c-2.505-1.114-5.335-1.16-6.437-1.044-.209-.453.29-1.117.565-1.392.279-.279.232-1.015.174-1.349-.661-1.079-.681-1.435-.609-1.479 0-.8 1.334-.884 2.001-.826-.174 1.566 1.233 2.566 1.958 2.87ZM112.829 46.487l.827.652c-1.044 0-2.552 1.798-3.176 2.697-.487.592-1.13.42-1.391.261-.522-1.879-1.784-2.407-2.349-2.436-.174-.556.362-1.073.652-1.261 1.636-.07 2.538-.29 2.784-.392l2.305-1z"/><path fill="#0a0a0a" d="m125.525 39.745-2.349 3.219c2.505-1.114 5.335-1.16 6.437-1.044.209-.453-.29-1.117-.565-1.392-.279-.279-.232-1.015-.174-1.349.661-1.079.681-1.435.609-1.479 0-.8-1.334-.884-2.001-.826.174 1.566-1.232 2.566-1.957 2.87M120.914 46.487l-.827.652c1.044 0 2.552 1.798 3.176 2.697.487.592 1.131.42 1.392.261.522-1.879 1.783-2.407 2.348-2.436.174-.556-.362-1.073-.652-1.261-1.636-.07-2.537-.29-2.784-.392l-2.305-1z"/><path stroke="#0a0a0a" d="m125.525 39.745-2.349 3.219c2.505-1.114 5.335-1.16 6.437-1.044.209-.453-.29-1.117-.565-1.392-.279-.279-.232-1.015-.174-1.349.661-1.079.681-1.435.609-1.479 0-.8-1.334-.884-2.001-.826.174 1.566-1.232 2.566-1.957 2.87ZM120.914 46.487l-.827.652c1.044 0 2.552 1.798 3.176 2.697.487.592 1.131.42 1.392.261.522-1.879 1.783-2.407 2.348-2.436.174-.556-.362-1.073-.652-1.261-1.636-.07-2.537-.29-2.784-.392l-2.305-1z"/><defs><filter id="a" width="224.113" height="236" x="4.952" y="0" color-interpolation-filters="sRGB" filterUnits="userSpaceOnUse"><feFlood flood-opacity="0" result="BackgroundImageFix"/><feBlend in="SourceGraphic" in2="BackgroundImageFix" result="shape"/><feTurbulence baseFrequency="1.1111111640930176 1.1111111640930176" numOctaves="3" result="noise" seed="630" stitchTiles="stitch" type="fractalNoise"/><feComponentTransfer in="noise" result="coloredNoise1"><feFuncR intercept="-.5" slope="2" type="linear"/><feFuncG intercept="-.5" slope="2" type="linear"/><feFuncB intercept="-.5" slope="2" type="linear"/><feFuncA tableValues="1 1 1 1 1 1 1 1 1 1 1 1 1 1 1 1 1 1 1 1 1 1 1 1 1 1 1 1 1 1 1 1 1 1 1 1 1 1 1 1 1 1 1 1 1 1 1 1 1 1 1 0 0 0 0 0 0 0 0 0 0 0 0 0 0 0 0 0 0 0 0 0 0 0 0 0 0 0 0 0 0 0 0 0 0 0 0 0 0 0 0 0 0 0 0 0 0 0 0 0" type="discrete"/></feComponentTransfer><feComposite in="coloredNoise1" in2="shape" operator="in" result="noise1Clipped"/><feComponentTransfer in="noise1Clipped" result="color1"><feFuncA tableValues="0 0.15" type="table"/></feComponentTransfer><feMerge result="effect1_noise_160_183"><feMergeNode in="shape"/><feMergeNode in="color1"/></feMerge></filter><filter id="b" width="49.791" height="50.072" x="164.708" y="52.115" color-interpolation-filters="sRGB" filterUnits="userSpaceOnUse"><feFlood flood-opacity="0" result="BackgroundImageFix"/><feBlend in="SourceGraphic" in2="BackgroundImageFix" result="shape"/><feTurbulence baseFrequency="1.1111111640930176 1.1111111640930176" numOctaves="3" result="noise" seed="630" stitchTiles="stitch" type="fractalNoise"/><feComponentTransfer in="noise" result="coloredNoise1"><feFuncR intercept="-.5" slope="2" type="linear"/><feFuncG intercept="-.5" slope="2" type="linear"/><feFuncB intercept="-.5" slope="2" type="linear"/><feFuncA tableValues="1 1 1 1 1 1 1 1 1 1 1 1 1 1 1 1 1 1 1 1 1 1 1 1 1 1 1 1 1 1 1 1 1 1 1 1 1 1 1 1 1 1 1 1 1 1 1 1 1 1 1 0 0 0 0 0 0 0 0 0 0 0 0 0 0 0 0 0 0 0 0 0 0 0 0 0 0 0 0 0 0 0 0 0 0 0 0 0 0 0 0 0 0 0 0 0 0 0 0 0" type="discrete"/></feComponentTransfer><feComposite in="coloredNoise1" in2="shape" operator="in" result="noise1Clipped"/><feComponentTransfer in="noise1Clipped" result="color1"><feFuncA tableValues="0 0.15" type="table"/></feComponentTransfer><feMerge result="effect1_noise_160_183"><feMergeNode in="shape"/><feMergeNode in="color1"/></feMerge></filter><filter id="c" width="49.791" height="50.072" x="92.096" y="14.561" color-interpolation-filters="sRGB" filterUnits="userSpaceOnUse"><feFlood flood-opacity="0" result="BackgroundImageFix"/><feBlend in="SourceGraphic" in2="BackgroundImageFix" result="shape"/><feTurbulence baseFrequency="1.1111111640930176 1.1111111640930176" numOctaves="3" result="noise" seed="630" stitchTiles="stitch" type="fractalNoise"/><feComponentTransfer in="noise" result="coloredNoise1"><feFuncR intercept="-.5" slope="2" type="linear"/><feFuncG intercept="-.5" slope="2" type="linear"/><feFuncB intercept="-.5" slope="2" type="linear"/><feFuncA tableValues="1 1 1 1 1 1 1 1 1 1 1 1 1 1 1 1 1 1 1 1 1 1 1 1 1 1 1 1 1 1 1 1 1 1 1 1 1 1 1 1 1 1 1 1 1 1 1 1 1 1 1 0 0 0 0 0 0 0 0 0 0 0 0 0 0 0 0 0 0 0 0 0 0 0 0 0 0 0 0 0 0 0 0 0 0 0 0 0 0 0 0 0 0 0 0 0 0 0 0 0" type="discrete"/></feComponentTransfer><feComposite in="coloredNoise1" in2="shape" operator="in" result="noise1Clipped"/><feComponentTransfer in="noise1Clipped" result="color1"><feFuncA tableValues="0 0.15" type="table"/></feComponentTransfer><feMerge result="effect1_noise_160_183"><feMergeNode in="shape"/><feMergeNode in="color1"/></feMerge></filter><filter id="d" width="42" height="41" x="96.081" y="19" color-interpolation-filters="sRGB" filterUnits="userSpaceOnUse"><feFlood flood-opacity="0" result="BackgroundImageFix"/><feBlend in="SourceGraphic" in2="BackgroundImageFix" result="shape"/><feTurbulence baseFrequency="1.1111111640930176 1.1111111640930176" numOctaves="3" result="noise" seed="630" stitchTiles="stitch" type="fractalNoise"/><feComponentTransfer in="noise" result="coloredNoise1"><feFuncR intercept="-.5" slope="2" type="linear"/><feFuncG intercept="-.5" slope="2" type="linear"/><feFuncB intercept="-.5" slope="2" type="linear"/><feFuncA tableValues="1 1 1 1 1 1 1 1 1 1 1 1 1 1 1 1 1 1 1 1 1 1 1 1 1 1 1 1 1 1 1 1 1 1 1 1 1 1 1 1 1 1 1 1 1 1 1 1 1 1 1 0 0 0 0 0 0 0 0 0 0 0 0 0 0 0 0 0 0 0 0 0 0 0 0 0 0 0 0 0 0 0 0 0 0 0 0 0 0 0 0 0 0 0 0 0 0 0 0 0" type="discrete"/></feComponentTransfer><feComposite in="coloredNoise1" in2="shape" operator="in" result="noise1Clipped"/><feComponentTransfer in="noise1Clipped" result="color1"><feFuncA tableValues="0 0.15" type="table"/></feComponentTransfer><feMerge result="effect1_noise_160_183"><feMergeNode in="shape"/><feMergeNode in="color1"/></feMerge></filter><filter id="e" width="49.791" height="50.072" x="164.708" y="134.525" color-interpolation-filters="sRGB" filterUnits="userSpaceOnUse"><feFlood flood-opacity="0" result="BackgroundImageFix"/><feBlend in="SourceGraphic" in2="BackgroundImageFix" result="shape"/><feTurbulence baseFrequency="1.1111111640930176 1.1111111640930176" numOctaves="3" result="noise" seed="630" stitchTiles="stitch" type="fractalNoise"/><feComponentTransfer in="noise" result="coloredNoise1"><feFuncR intercept="-.5" slope="2" type="linear"/><feFuncG intercept="-.5" slope="2" type="linear"/><feFuncB intercept="-.5" slope="2" type="linear"/><feFuncA tableValues="1 1 1 1 1 1 1 1 1 1 1 1 1 1 1 1 1 1 1 1 1 1 1 1 1 1 1 1 1 1 1 1 1 1 1 1 1 1 1 1 1 1 1 1 1 1 1 1 1 1 1 0 0 0 0 0 0 0 0 0 0 0 0 0 0 0 0 0 0 0 0 0 0 0 0 0 0 0 0 0 0 0 0 0 0 0 0 0 0 0 0 0 0 0 0 0 0 0 0 0" type="discrete"/></feComponentTransfer><feComposite in="coloredNoise1" in2="shape" operator="in" result="noise1Clipped"/><feComponentTransfer in="noise1Clipped" result="color1"><feFuncA tableValues="0 0.15" type="table"/></feComponentTransfer><feMerge result="effect1_noise_160_183"><feMergeNode in="shape"/><feMergeNode in="color1"/></feMerge></filter><filter id="f" width="49.791" height="50.072" x="92.096" y="171.037" color-interpolation-filters="sRGB" filterUnits="userSpaceOnUse"><feFlood flood-opacity="0" result="BackgroundImageFix"/><feBlend in="SourceGraphic" in2="BackgroundImageFix" result="shape"/><feTurbulence baseFrequency="1.1111111640930176 1.1111111640930176" numOctaves="3" result="noise" seed="630" stitchTiles="stitch" type="fractalNoise"/><feComponentTransfer in="noise" result="coloredNoise1"><feFuncR intercept="-.5" slope="2" type="linear"/><feFuncG intercept="-.5" slope="2" type="linear"/><feFuncB intercept="-.5" slope="2" type="linear"/><feFuncA tableValues="1 1 1 1 1 1 1 1 1 1 1 1 1 1 1 1 1 1 1 1 1 1 1 1 1 1 1 1 1 1 1 1 1 1 1 1 1 1 1 1 1 1 1 1 1 1 1 1 1 1 1 0 0 0 0 0 0 0 0 0 0 0 0 0 0 0 0 0 0 0 0 0 0 0 0 0 0 0 0 0 0 0 0 0 0 0 0 0 0 0 0 0 0 0 0 0 0 0 0 0" type="discrete"/></feComponentTransfer><feComposite in="coloredNoise1" in2="shape" operator="in" result="noise1Clipped"/><feComponentTransfer in="noise1Clipped" result="color1"><feFuncA tableValues="0 0.15" type="table"/></feComponentTransfer><feMerge result="effect1_noise_160_183"><feMergeNode in="shape"/><feMergeNode in="color1"/></feMerge></filter><filter id="g" width="49.791" height="50.072" x="22.597" y="52.115" color-interpolation-filters="sRGB" filterUnits="userSpaceOnUse"><feFlood flood-opacity="0" result="BackgroundImageFix"/><feBlend in="SourceGraphic" in2="BackgroundImageFix" result="shape"/><feTurbulence baseFrequency="1.1111111640930176 1.1111111640930176" numOctaves="3" result="noise" seed="630" stitchTiles="stitch" type="fractalNoise"/><feComponentTransfer in="noise" result="coloredNoise1"><feFuncR intercept="-.5" slope="2" type="linear"/><feFuncG intercept="-.5" slope="2" type="linear"/><feFuncB intercept="-.5" slope="2" type="linear"/><feFuncA tableValues="1 1 1 1 1 1 1 1 1 1 1 1 1 1 1 1 1 1 1 1 1 1 1 1 1 1 1 1 1 1 1 1 1 1 1 1 1 1 1 1 1 1 1 1 1 1 1 1 1 1 1 0 0 0 0 0 0 0 0 0 0 0 0 0 0 0 0 0 0 0 0 0 0 0 0 0 0 0 0 0 0 0 0 0 0 0 0 0 0 0 0 0 0 0 0 0 0 0 0 0" type="discrete"/></feComponentTransfer><feComposite in="coloredNoise1" in2="shape" operator="in" result="noise1Clipped"/><feComponentTransfer in="noise1Clipped" result="color1"><feFuncA tableValues="0 0.15" type="table"/></feComponentTransfer><feMerge result="effect1_noise_160_183"><feMergeNode in="shape"/><feMergeNode in="color1"/></feMerge></filter><filter id="h" width="49.791" height="50.072" x="22.597" y="134.525" color-interpolation-filters="sRGB" filterUnits="userSpaceOnUse"><feFlood flood-opacity="0" result="BackgroundImageFix"/><feBlend in="SourceGraphic" in2="BackgroundImageFix" result="shape"/><feTurbulence baseFrequency="1.1111111640930176 1.1111111640930176" numOctaves="3" result="noise" seed="630" stitchTiles="stitch" type="fractalNoise"/><feComponentTransfer in="noise" result="coloredNoise1"><feFuncR intercept="-.5" slope="2" type="linear"/><feFuncG intercept="-.5" slope="2" type="linear"/><feFuncB intercept="-.5" slope="2" type="linear"/><feFuncA tableValues="1 1 1 1 1 1 1 1 1 1 1 1 1 1 1 1 1 1 1 1 1 1 1 1 1 1 1 1 1 1 1 1 1 1 1 1 1 1 1 1 1 1 1 1 1 1 1 1 1 1 1 0 0 0 0 0 0 0 0 0 0 0 0 0 0 0 0 0 0 0 0 0 0 0 0 0 0 0 0 0 0 0 0 0 0 0 0 0 0 0 0 0 0 0 0 0 0 0 0 0" type="discrete"/></feComponentTransfer><feComposite in="coloredNoise1" in2="shape" operator="in" result="noise1Clipped"/><feComponentTransfer in="noise1Clipped" result="color1"><feFuncA tableValues="0 0.15" type="table"/></feComponentTransfer><feMerge result="effect1_noise_160_183"><feMergeNode in="shape"/><feMergeNode in="color1"/></feMerge></filter><filter id="i" width="74.686" height="75.108" x="79.647" y="80.281" color-interpolation-filters="sRGB" filterUnits="userSpaceOnUse"><feFlood flood-opacity="0" result="BackgroundImageFix"/><feBlend in="SourceGraphic" in2="BackgroundImageFix" result="shape"/><feTurbulence baseFrequency="1.1111111640930176 1.1111111640930176" numOctaves="3" result="noise" seed="630" stitchTiles="stitch" type="fractalNoise"/><feComponentTransfer in="noise" result="coloredNoise1"><feFuncR intercept="-.5" slope="2" type="linear"/><feFuncG intercept="-.5" slope="2" type="linear"/><feFuncB intercept="-.5" slope="2" type="linear"/><feFuncA tableValues="1 1 1 1 1 1 1 1 1 1 1 1 1 1 1 1 1 1 1 1 1 1 1 1 1 1 1 1 1 1 1 1 1 1 1 1 1 1 1 1 1 1 1 1 1 1 1 1 1 1 1 0 0 0 0 0 0 0 0 0 0 0 0 0 0 0 0 0 0 0 0 0 0 0 0 0 0 0 0 0 0 0 0 0 0 0 0 0 0 0 0 0 0 0 0 0 0 0 0 0" type="discrete"/></feComponentTransfer><feComposite in="coloredNoise1" in2="shape" operator="in" result="noise1Clipped"/><feComponentTransfer in="noise1Clipped" result="color1"><feFuncA tableValues="0 0.15" type="table"/></feComponentTransfer><feMerge result="effect1_noise_160_183"><feMergeNode in="shape"/><feMergeNode in="color1"/></feMerge></filter></defs></svg>