<svg width="234" height="236" viewBox="0 0 234 236" fill="none" xmlns="http://www.w3.org/2000/svg">
<g opacity="0.5">
<g filter="url(#filter0_n_160_183)">
<path d="M6 89.1235C16.788 114.577 10.495 136.936 6 144.933C10.9661 172.471 19.5012 184.576 36.0981 199.702C66.18 199.702 76.0345 209.09 85.8889 229.954C108.71 236.63 127.9 236.734 146.053 229.954C161.405 207.838 174.579 202.31 197.918 199.702C215.76 182.594 222.295 171.536 228 148.586C215.967 126.888 218.146 109.989 228 90.1687C225.096 67.2189 215.552 51.5714 197.918 35.9218C167.836 32.2727 157.463 24.9705 146.053 6.71299C121.157 -1.21511 107.672 -0.587083 85.8889 6.71299C77.1755 26.7419 60.4748 34.357 37.6379 35.9218C18.1365 50.9434 8.09082 71.9112 6 89.1235Z" fill="#0A0A0A"/>
<path d="M6 89.1235C16.788 114.577 10.495 136.936 6 144.933C10.9661 172.471 19.5012 184.576 36.0981 199.702C66.18 199.702 76.0345 209.09 85.8889 229.954C108.71 236.63 127.9 236.734 146.053 229.954C161.405 207.838 174.579 202.31 197.918 199.702C215.76 182.594 222.295 171.536 228 148.586C215.967 126.888 218.146 109.989 228 90.1687C225.096 67.2189 215.552 51.5714 197.918 35.9218C167.836 32.2727 157.463 24.9705 146.053 6.71299C121.157 -1.21511 107.672 -0.587083 85.8889 6.71299C77.1755 26.7419 60.4748 34.357 37.6379 35.9218C18.1365 50.9434 8.09082 71.9112 6 89.1235Z" stroke="#F3F3F3" stroke-width="2"/>
</g>
<g filter="url(#filter1_n_160_183)">
<path d="M189.604 52.865C202.935 52.8651 213.749 63.7343 213.749 77.1511C213.749 90.5679 202.935 101.437 189.604 101.437C176.272 101.437 165.458 90.5679 165.458 77.1511C165.458 63.7343 176.272 52.865 189.604 52.865Z" stroke="#F3F3F3" stroke-width="1.5"/>
</g>
<g filter="url(#filter2_n_160_183)">
<path d="M116.991 15.3112C130.322 15.3112 141.137 26.1805 141.137 39.5973C141.137 53.0141 130.322 63.8834 116.991 63.8834C103.66 63.8834 92.8457 53.0141 92.8457 39.5973C92.8457 26.1805 103.66 15.3112 116.991 15.3112Z" stroke="#F3F3F3" stroke-width="1.5"/>
</g>
<g filter="url(#filter3_n_160_183)">
<ellipse cx="117.081" cy="39.5" rx="21" ry="20.5" fill="#F3F3F3"/>
<path d="M117.081 19.75C128.282 19.75 137.331 28.6093 137.331 39.5C137.331 50.3907 128.282 59.25 117.081 59.25C105.88 59.25 96.8311 50.3907 96.8311 39.5C96.8311 28.6093 105.88 19.75 117.081 19.75Z" stroke="#F3F3F3" stroke-width="1.5"/>
</g>
<g filter="url(#filter4_n_160_183)">
<path d="M189.604 135.275C202.935 135.275 213.749 146.145 213.749 159.561C213.749 172.978 202.935 183.847 189.604 183.847C176.272 183.847 165.458 172.978 165.458 159.561C165.458 146.145 176.272 135.275 189.604 135.275Z" stroke="#F3F3F3" stroke-width="1.5"/>
</g>
<g filter="url(#filter5_n_160_183)">
<path d="M116.991 171.787C130.322 171.787 141.137 182.656 141.137 196.073C141.137 209.49 130.322 220.359 116.991 220.359C103.66 220.359 92.8457 209.49 92.8457 196.073C92.8457 182.656 103.66 171.787 116.991 171.787Z" stroke="#F3F3F3" stroke-width="1.5"/>
</g>
<g filter="url(#filter6_n_160_183)">
<path d="M47.4922 52.865C60.8233 52.8651 71.6377 63.7343 71.6377 77.1511C71.6377 90.5679 60.8233 101.437 47.4922 101.437C34.1611 101.437 23.3467 90.5679 23.3467 77.1511C23.3467 63.7343 34.161 52.865 47.4922 52.865Z" stroke="#F3F3F3" stroke-width="1.5"/>
</g>
<g filter="url(#filter7_n_160_183)">
<path d="M47.4922 135.275C60.8233 135.275 71.6377 146.145 71.6377 159.561C71.6377 172.978 60.8233 183.847 47.4922 183.847C34.1611 183.847 23.3467 172.978 23.3467 159.561C23.3467 146.145 34.161 135.275 47.4922 135.275Z" stroke="#F3F3F3" stroke-width="1.5"/>
</g>
<g filter="url(#filter8_n_160_183)">
<path d="M116.99 81.2808C137.057 81.2808 153.334 97.6411 153.334 117.835C153.334 138.028 137.057 154.389 116.99 154.389C96.924 154.389 80.6475 138.028 80.6475 117.835C80.6477 97.6412 96.9241 81.281 116.99 81.2808Z" stroke="#F3F3F3" stroke-width="2"/>
</g>
</g>
<path d="M111.481 42.7026L113.047 43.2245L113.264 44.3555L115.483 45.5734H118.354L120.485 44.3555L120.746 43.2245L122.268 42.7026L124.922 39.3533L123.965 37.9179L124.617 32.5677C125 31.4889 123.907 30.0883 123.312 29.5229C121.99 27.7134 118.18 27.087 116.44 27C113.238 27.3132 111.278 28.8124 110.698 29.5229C109.132 30.4972 109.031 31.9587 109.176 32.5677L109.915 37.9179L108.871 39.3533L111.481 42.7026Z" fill="#0A0A0A"/>
<path d="M113.525 45.9214L113.351 44.9209L114.178 45.4429L114.134 46.3999L113.525 45.9214Z" fill="#0A0A0A"/>
<path d="M114.439 45.5734V46.6173L115.396 47.0088V46.0084L114.439 45.5734Z" fill="#0A0A0A"/>
<path d="M115.7 46.0084V47.1393H116.701V46.0084H115.7Z" fill="#0A0A0A"/>
<path d="M117.005 46.0084V47.1393H118.006V46.0084H117.005Z" fill="#0A0A0A"/>
<path d="M118.354 46.0084L118.397 47.0958L119.223 46.6173V45.5734L118.354 46.0084Z" fill="#0A0A0A"/>
<path d="M119.615 45.4429V46.3999L120.354 45.6604V44.9209L119.615 45.4429Z" fill="#0A0A0A"/>
<path d="M111.481 42.7026L113.047 43.2245L113.264 44.3555L115.483 45.5734H118.354L120.485 44.3555L120.746 43.2245L122.268 42.7026L124.922 39.3533L123.965 37.9179L124.617 32.5677C125 31.4889 123.907 30.0883 123.312 29.5229C121.99 27.7134 118.18 27.087 116.44 27C113.238 27.3132 111.278 28.8124 110.698 29.5229C109.132 30.4972 109.031 31.9587 109.176 32.5677L109.915 37.9179L108.871 39.3533L111.481 42.7026Z" stroke="#0A0A0A"/>
<path d="M113.525 45.9214L113.351 44.9209L114.178 45.4429L114.134 46.3999L113.525 45.9214Z" stroke="#0A0A0A"/>
<path d="M114.439 45.5734V46.6173L115.396 47.0088V46.0084L114.439 45.5734Z" stroke="#0A0A0A"/>
<path d="M115.7 46.0084V47.1393H116.701V46.0084H115.7Z" stroke="#0A0A0A"/>
<path d="M117.005 46.0084V47.1393H118.006V46.0084H117.005Z" stroke="#0A0A0A"/>
<path d="M118.354 46.0084L118.397 47.0958L119.223 46.6173V45.5734L118.354 46.0084Z" stroke="#0A0A0A"/>
<path d="M119.615 45.4429V46.3999L120.354 45.6604V44.9209L119.615 45.4429Z" stroke="#0A0A0A"/>
<path d="M108.219 39.7447L110.567 42.9635C108.062 41.85 105.232 41.8036 104.13 41.9196C103.921 41.4672 104.42 40.8032 104.695 40.5277C104.974 40.2493 104.927 39.5127 104.869 39.1793C104.208 38.1005 104.188 37.7439 104.26 37.7004C104.26 36.9 105.594 36.8159 106.261 36.8739C106.087 38.4398 107.494 39.4403 108.219 39.7447Z" fill="#0A0A0A"/>
<path d="M112.829 46.4868L113.656 47.1393C112.612 47.1393 111.104 48.9372 110.48 49.8361C109.993 50.4277 109.35 50.2566 109.089 50.0971C108.567 48.218 107.305 47.6903 106.74 47.6613C106.566 47.1045 107.102 46.5883 107.392 46.3998C109.028 46.3302 109.93 46.1099 110.176 46.0084L112.481 45.0079L112.829 46.4868Z" fill="#0A0A0A"/>
<path d="M108.219 39.7447L110.567 42.9635C108.062 41.85 105.232 41.8036 104.13 41.9196C103.921 41.4672 104.42 40.8032 104.695 40.5277C104.974 40.2493 104.927 39.5127 104.869 39.1793C104.208 38.1005 104.188 37.7439 104.26 37.7004C104.26 36.9 105.594 36.8159 106.261 36.8739C106.087 38.4398 107.494 39.4403 108.219 39.7447Z" stroke="#0A0A0A"/>
<path d="M112.829 46.4868L113.656 47.1393C112.612 47.1393 111.104 48.9372 110.48 49.8361C109.993 50.4277 109.35 50.2566 109.089 50.0971C108.567 48.218 107.305 47.6903 106.74 47.6613C106.566 47.1045 107.102 46.5883 107.392 46.3998C109.028 46.3302 109.93 46.1099 110.176 46.0084L112.481 45.0079L112.829 46.4868Z" stroke="#0A0A0A"/>
<path d="M125.525 39.7447L123.176 42.9635C125.681 41.85 128.511 41.8036 129.613 41.9196C129.822 41.4672 129.323 40.8032 129.048 40.5277C128.769 40.2493 128.816 39.5127 128.874 39.1793C129.535 38.1005 129.555 37.7439 129.483 37.7004C129.483 36.9 128.149 36.8159 127.482 36.8739C127.656 38.4398 126.25 39.4403 125.525 39.7447Z" fill="#0A0A0A"/>
<path d="M120.914 46.4868L120.087 47.1393C121.131 47.1393 122.639 48.9372 123.263 49.8361C123.75 50.4277 124.394 50.2566 124.655 50.0971C125.177 48.218 126.438 47.6903 127.003 47.6613C127.177 47.1045 126.641 46.5883 126.351 46.3998C124.715 46.3302 123.814 46.1099 123.567 46.0084L121.262 45.0079L120.914 46.4868Z" fill="#0A0A0A"/>
<path d="M125.525 39.7447L123.176 42.9635C125.681 41.85 128.511 41.8036 129.613 41.9196C129.822 41.4672 129.323 40.8032 129.048 40.5277C128.769 40.2493 128.816 39.5127 128.874 39.1793C129.535 38.1005 129.555 37.7439 129.483 37.7004C129.483 36.9 128.149 36.8159 127.482 36.8739C127.656 38.4398 126.25 39.4403 125.525 39.7447Z" stroke="#0A0A0A"/>
<path d="M120.914 46.4868L120.087 47.1393C121.131 47.1393 122.639 48.9372 123.263 49.8361C123.75 50.4277 124.394 50.2566 124.655 50.0971C125.177 48.218 126.438 47.6903 127.003 47.6613C127.177 47.1045 126.641 46.5883 126.351 46.3998C124.715 46.3302 123.814 46.1099 123.567 46.0084L121.262 45.0079L120.914 46.4868Z" stroke="#0A0A0A"/>
<defs>
<filter id="filter0_n_160_183" x="4.95215" y="0" width="224.113" height="236" filterUnits="userSpaceOnUse" color-interpolation-filters="sRGB">
<feFlood flood-opacity="0" result="BackgroundImageFix"/>
<feBlend mode="normal" in="SourceGraphic" in2="BackgroundImageFix" result="shape"/>
<feTurbulence type="fractalNoise" baseFrequency="1.1111111640930176 1.1111111640930176" stitchTiles="stitch" numOctaves="3" result="noise" seed="630" />
<feComponentTransfer in="noise" result="coloredNoise1">
<feFuncR type="linear" slope="2" intercept="-0.5" />
<feFuncG type="linear" slope="2" intercept="-0.5" />
<feFuncB type="linear" slope="2" intercept="-0.5" />
<feFuncA type="discrete" tableValues="1 1 1 1 1 1 1 1 1 1 1 1 1 1 1 1 1 1 1 1 1 1 1 1 1 1 1 1 1 1 1 1 1 1 1 1 1 1 1 1 1 1 1 1 1 1 1 1 1 1 1 0 0 0 0 0 0 0 0 0 0 0 0 0 0 0 0 0 0 0 0 0 0 0 0 0 0 0 0 0 0 0 0 0 0 0 0 0 0 0 0 0 0 0 0 0 0 0 0 0 "/>
</feComponentTransfer>
<feComposite operator="in" in2="shape" in="coloredNoise1" result="noise1Clipped" />
<feComponentTransfer in="noise1Clipped" result="color1">
<feFuncA type="table" tableValues="0 0.15" />
</feComponentTransfer>
<feMerge result="effect1_noise_160_183">
<feMergeNode in="shape" />
<feMergeNode in="color1" />
</feMerge>
</filter>
<filter id="filter1_n_160_183" x="164.708" y="52.115" width="49.791" height="50.0722" filterUnits="userSpaceOnUse" color-interpolation-filters="sRGB">
<feFlood flood-opacity="0" result="BackgroundImageFix"/>
<feBlend mode="normal" in="SourceGraphic" in2="BackgroundImageFix" result="shape"/>
<feTurbulence type="fractalNoise" baseFrequency="1.1111111640930176 1.1111111640930176" stitchTiles="stitch" numOctaves="3" result="noise" seed="630" />
<feComponentTransfer in="noise" result="coloredNoise1">
<feFuncR type="linear" slope="2" intercept="-0.5" />
<feFuncG type="linear" slope="2" intercept="-0.5" />
<feFuncB type="linear" slope="2" intercept="-0.5" />
<feFuncA type="discrete" tableValues="1 1 1 1 1 1 1 1 1 1 1 1 1 1 1 1 1 1 1 1 1 1 1 1 1 1 1 1 1 1 1 1 1 1 1 1 1 1 1 1 1 1 1 1 1 1 1 1 1 1 1 0 0 0 0 0 0 0 0 0 0 0 0 0 0 0 0 0 0 0 0 0 0 0 0 0 0 0 0 0 0 0 0 0 0 0 0 0 0 0 0 0 0 0 0 0 0 0 0 0 "/>
</feComponentTransfer>
<feComposite operator="in" in2="shape" in="coloredNoise1" result="noise1Clipped" />
<feComponentTransfer in="noise1Clipped" result="color1">
<feFuncA type="table" tableValues="0 0.15" />
</feComponentTransfer>
<feMerge result="effect1_noise_160_183">
<feMergeNode in="shape" />
<feMergeNode in="color1" />
</feMerge>
</filter>
<filter id="filter2_n_160_183" x="92.0957" y="14.5612" width="49.791" height="50.0721" filterUnits="userSpaceOnUse" color-interpolation-filters="sRGB">
<feFlood flood-opacity="0" result="BackgroundImageFix"/>
<feBlend mode="normal" in="SourceGraphic" in2="BackgroundImageFix" result="shape"/>
<feTurbulence type="fractalNoise" baseFrequency="1.1111111640930176 1.1111111640930176" stitchTiles="stitch" numOctaves="3" result="noise" seed="630" />
<feComponentTransfer in="noise" result="coloredNoise1">
<feFuncR type="linear" slope="2" intercept="-0.5" />
<feFuncG type="linear" slope="2" intercept="-0.5" />
<feFuncB type="linear" slope="2" intercept="-0.5" />
<feFuncA type="discrete" tableValues="1 1 1 1 1 1 1 1 1 1 1 1 1 1 1 1 1 1 1 1 1 1 1 1 1 1 1 1 1 1 1 1 1 1 1 1 1 1 1 1 1 1 1 1 1 1 1 1 1 1 1 0 0 0 0 0 0 0 0 0 0 0 0 0 0 0 0 0 0 0 0 0 0 0 0 0 0 0 0 0 0 0 0 0 0 0 0 0 0 0 0 0 0 0 0 0 0 0 0 0 "/>
</feComponentTransfer>
<feComposite operator="in" in2="shape" in="coloredNoise1" result="noise1Clipped" />
<feComponentTransfer in="noise1Clipped" result="color1">
<feFuncA type="table" tableValues="0 0.15" />
</feComponentTransfer>
<feMerge result="effect1_noise_160_183">
<feMergeNode in="shape" />
<feMergeNode in="color1" />
</feMerge>
</filter>
<filter id="filter3_n_160_183" x="96.0811" y="19" width="42" height="41" filterUnits="userSpaceOnUse" color-interpolation-filters="sRGB">
<feFlood flood-opacity="0" result="BackgroundImageFix"/>
<feBlend mode="normal" in="SourceGraphic" in2="BackgroundImageFix" result="shape"/>
<feTurbulence type="fractalNoise" baseFrequency="1.1111111640930176 1.1111111640930176" stitchTiles="stitch" numOctaves="3" result="noise" seed="630" />
<feComponentTransfer in="noise" result="coloredNoise1">
<feFuncR type="linear" slope="2" intercept="-0.5" />
<feFuncG type="linear" slope="2" intercept="-0.5" />
<feFuncB type="linear" slope="2" intercept="-0.5" />
<feFuncA type="discrete" tableValues="1 1 1 1 1 1 1 1 1 1 1 1 1 1 1 1 1 1 1 1 1 1 1 1 1 1 1 1 1 1 1 1 1 1 1 1 1 1 1 1 1 1 1 1 1 1 1 1 1 1 1 0 0 0 0 0 0 0 0 0 0 0 0 0 0 0 0 0 0 0 0 0 0 0 0 0 0 0 0 0 0 0 0 0 0 0 0 0 0 0 0 0 0 0 0 0 0 0 0 0 "/>
</feComponentTransfer>
<feComposite operator="in" in2="shape" in="coloredNoise1" result="noise1Clipped" />
<feComponentTransfer in="noise1Clipped" result="color1">
<feFuncA type="table" tableValues="0 0.15" />
</feComponentTransfer>
<feMerge result="effect1_noise_160_183">
<feMergeNode in="shape" />
<feMergeNode in="color1" />
</feMerge>
</filter>
<filter id="filter4_n_160_183" x="164.708" y="134.525" width="49.791" height="50.0722" filterUnits="userSpaceOnUse" color-interpolation-filters="sRGB">
<feFlood flood-opacity="0" result="BackgroundImageFix"/>
<feBlend mode="normal" in="SourceGraphic" in2="BackgroundImageFix" result="shape"/>
<feTurbulence type="fractalNoise" baseFrequency="1.1111111640930176 1.1111111640930176" stitchTiles="stitch" numOctaves="3" result="noise" seed="630" />
<feComponentTransfer in="noise" result="coloredNoise1">
<feFuncR type="linear" slope="2" intercept="-0.5" />
<feFuncG type="linear" slope="2" intercept="-0.5" />
<feFuncB type="linear" slope="2" intercept="-0.5" />
<feFuncA type="discrete" tableValues="1 1 1 1 1 1 1 1 1 1 1 1 1 1 1 1 1 1 1 1 1 1 1 1 1 1 1 1 1 1 1 1 1 1 1 1 1 1 1 1 1 1 1 1 1 1 1 1 1 1 1 0 0 0 0 0 0 0 0 0 0 0 0 0 0 0 0 0 0 0 0 0 0 0 0 0 0 0 0 0 0 0 0 0 0 0 0 0 0 0 0 0 0 0 0 0 0 0 0 0 "/>
</feComponentTransfer>
<feComposite operator="in" in2="shape" in="coloredNoise1" result="noise1Clipped" />
<feComponentTransfer in="noise1Clipped" result="color1">
<feFuncA type="table" tableValues="0 0.15" />
</feComponentTransfer>
<feMerge result="effect1_noise_160_183">
<feMergeNode in="shape" />
<feMergeNode in="color1" />
</feMerge>
</filter>
<filter id="filter5_n_160_183" x="92.0957" y="171.037" width="49.791" height="50.0722" filterUnits="userSpaceOnUse" color-interpolation-filters="sRGB">
<feFlood flood-opacity="0" result="BackgroundImageFix"/>
<feBlend mode="normal" in="SourceGraphic" in2="BackgroundImageFix" result="shape"/>
<feTurbulence type="fractalNoise" baseFrequency="1.1111111640930176 1.1111111640930176" stitchTiles="stitch" numOctaves="3" result="noise" seed="630" />
<feComponentTransfer in="noise" result="coloredNoise1">
<feFuncR type="linear" slope="2" intercept="-0.5" />
<feFuncG type="linear" slope="2" intercept="-0.5" />
<feFuncB type="linear" slope="2" intercept="-0.5" />
<feFuncA type="discrete" tableValues="1 1 1 1 1 1 1 1 1 1 1 1 1 1 1 1 1 1 1 1 1 1 1 1 1 1 1 1 1 1 1 1 1 1 1 1 1 1 1 1 1 1 1 1 1 1 1 1 1 1 1 0 0 0 0 0 0 0 0 0 0 0 0 0 0 0 0 0 0 0 0 0 0 0 0 0 0 0 0 0 0 0 0 0 0 0 0 0 0 0 0 0 0 0 0 0 0 0 0 0 "/>
</feComponentTransfer>
<feComposite operator="in" in2="shape" in="coloredNoise1" result="noise1Clipped" />
<feComponentTransfer in="noise1Clipped" result="color1">
<feFuncA type="table" tableValues="0 0.15" />
</feComponentTransfer>
<feMerge result="effect1_noise_160_183">
<feMergeNode in="shape" />
<feMergeNode in="color1" />
</feMerge>
</filter>
<filter id="filter6_n_160_183" x="22.5967" y="52.115" width="49.791" height="50.0722" filterUnits="userSpaceOnUse" color-interpolation-filters="sRGB">
<feFlood flood-opacity="0" result="BackgroundImageFix"/>
<feBlend mode="normal" in="SourceGraphic" in2="BackgroundImageFix" result="shape"/>
<feTurbulence type="fractalNoise" baseFrequency="1.1111111640930176 1.1111111640930176" stitchTiles="stitch" numOctaves="3" result="noise" seed="630" />
<feComponentTransfer in="noise" result="coloredNoise1">
<feFuncR type="linear" slope="2" intercept="-0.5" />
<feFuncG type="linear" slope="2" intercept="-0.5" />
<feFuncB type="linear" slope="2" intercept="-0.5" />
<feFuncA type="discrete" tableValues="1 1 1 1 1 1 1 1 1 1 1 1 1 1 1 1 1 1 1 1 1 1 1 1 1 1 1 1 1 1 1 1 1 1 1 1 1 1 1 1 1 1 1 1 1 1 1 1 1 1 1 0 0 0 0 0 0 0 0 0 0 0 0 0 0 0 0 0 0 0 0 0 0 0 0 0 0 0 0 0 0 0 0 0 0 0 0 0 0 0 0 0 0 0 0 0 0 0 0 0 "/>
</feComponentTransfer>
<feComposite operator="in" in2="shape" in="coloredNoise1" result="noise1Clipped" />
<feComponentTransfer in="noise1Clipped" result="color1">
<feFuncA type="table" tableValues="0 0.15" />
</feComponentTransfer>
<feMerge result="effect1_noise_160_183">
<feMergeNode in="shape" />
<feMergeNode in="color1" />
</feMerge>
</filter>
<filter id="filter7_n_160_183" x="22.5967" y="134.525" width="49.791" height="50.0722" filterUnits="userSpaceOnUse" color-interpolation-filters="sRGB">
<feFlood flood-opacity="0" result="BackgroundImageFix"/>
<feBlend mode="normal" in="SourceGraphic" in2="BackgroundImageFix" result="shape"/>
<feTurbulence type="fractalNoise" baseFrequency="1.1111111640930176 1.1111111640930176" stitchTiles="stitch" numOctaves="3" result="noise" seed="630" />
<feComponentTransfer in="noise" result="coloredNoise1">
<feFuncR type="linear" slope="2" intercept="-0.5" />
<feFuncG type="linear" slope="2" intercept="-0.5" />
<feFuncB type="linear" slope="2" intercept="-0.5" />
<feFuncA type="discrete" tableValues="1 1 1 1 1 1 1 1 1 1 1 1 1 1 1 1 1 1 1 1 1 1 1 1 1 1 1 1 1 1 1 1 1 1 1 1 1 1 1 1 1 1 1 1 1 1 1 1 1 1 1 0 0 0 0 0 0 0 0 0 0 0 0 0 0 0 0 0 0 0 0 0 0 0 0 0 0 0 0 0 0 0 0 0 0 0 0 0 0 0 0 0 0 0 0 0 0 0 0 0 "/>
</feComponentTransfer>
<feComposite operator="in" in2="shape" in="coloredNoise1" result="noise1Clipped" />
<feComponentTransfer in="noise1Clipped" result="color1">
<feFuncA type="table" tableValues="0 0.15" />
</feComponentTransfer>
<feMerge result="effect1_noise_160_183">
<feMergeNode in="shape" />
<feMergeNode in="color1" />
</feMerge>
</filter>
<filter id="filter8_n_160_183" x="79.6475" y="80.2808" width="74.6865" height="75.1083" filterUnits="userSpaceOnUse" color-interpolation-filters="sRGB">
<feFlood flood-opacity="0" result="BackgroundImageFix"/>
<feBlend mode="normal" in="SourceGraphic" in2="BackgroundImageFix" result="shape"/>
<feTurbulence type="fractalNoise" baseFrequency="1.1111111640930176 1.1111111640930176" stitchTiles="stitch" numOctaves="3" result="noise" seed="630" />
<feComponentTransfer in="noise" result="coloredNoise1">
<feFuncR type="linear" slope="2" intercept="-0.5" />
<feFuncG type="linear" slope="2" intercept="-0.5" />
<feFuncB type="linear" slope="2" intercept="-0.5" />
<feFuncA type="discrete" tableValues="1 1 1 1 1 1 1 1 1 1 1 1 1 1 1 1 1 1 1 1 1 1 1 1 1 1 1 1 1 1 1 1 1 1 1 1 1 1 1 1 1 1 1 1 1 1 1 1 1 1 1 0 0 0 0 0 0 0 0 0 0 0 0 0 0 0 0 0 0 0 0 0 0 0 0 0 0 0 0 0 0 0 0 0 0 0 0 0 0 0 0 0 0 0 0 0 0 0 0 0 "/>
</feComponentTransfer>
<feComposite operator="in" in2="shape" in="coloredNoise1" result="noise1Clipped" />
<feComponentTransfer in="noise1Clipped" result="color1">
<feFuncA type="table" tableValues="0 0.15" />
</feComponentTransfer>
<feMerge result="effect1_noise_160_183">
<feMergeNode in="shape" />
<feMergeNode in="color1" />
</feMerge>
</filter>
</defs>
</svg>
