<svg width="1440" height="126" viewBox="0 0 1440 126" fill="none" xmlns="http://www.w3.org/2000/svg">
<g filter="url(#filter0_n_43_36)">
<path d="M33.5 8.03528C43.9 -6.51738 58.1667 1.97167 64 8.03528L81 25.6749L527 16.5L566 21.1641H590.5L618.5 25.6749H699.5H726L1347 21.8162C1353.33 15.5688 1366.5 3.84586 1368.5 6.93279C1370.5 10.0197 1378 8.21901 1381.5 6.93279C1384.7 -0.564036 1396.83 6.01406 1402.5 10.2402C1405.3 13.7681 1428.67 11.7102 1440 10.2402V126H0V3.62536C4 -0.784532 24 4.72785 33.5 8.03528Z" fill="#030104"/>
</g>
<defs>
<filter id="filter0_n_43_36" x="0" y="0" width="1440" height="126" filterUnits="userSpaceOnUse" color-interpolation-filters="sRGB">
<feFlood flood-opacity="0" result="BackgroundImageFix"/>
<feBlend mode="normal" in="SourceGraphic" in2="BackgroundImageFix" result="shape"/>
<feTurbulence type="fractalNoise" baseFrequency="0.5 0.5" stitchTiles="stitch" numOctaves="3" result="noise" seed="8375" />
<feColorMatrix in="noise" type="luminanceToAlpha" result="alphaNoise" />
<feComponentTransfer in="alphaNoise" result="coloredNoise1">
<feFuncA type="discrete" tableValues="1 1 1 1 1 1 1 1 1 1 1 1 1 1 1 1 1 1 1 1 1 1 1 1 1 1 1 1 1 1 1 1 1 1 1 1 1 1 1 1 1 1 1 1 1 1 1 1 1 1 1 0 0 0 0 0 0 0 0 0 0 0 0 0 0 0 0 0 0 0 0 0 0 0 0 0 0 0 0 0 0 0 0 0 0 0 0 0 0 0 0 0 0 0 0 0 0 0 0 0 "/>
</feComponentTransfer>
<feComposite operator="in" in2="shape" in="coloredNoise1" result="noise1Clipped" />
<feFlood flood-color="rgba(0, 0, 0, 0.15)" result="color1Flood" />
<feComposite operator="in" in2="noise1Clipped" in="color1Flood" result="color1" />
<feMerge result="effect1_noise_43_36">
<feMergeNode in="shape" />
<feMergeNode in="color1" />
</feMerge>
</filter>
</defs>
</svg>
