<svg xmlns="http://www.w3.org/2000/svg" width="16" height="16" fill="none" viewBox="0 0 16 16"><path fill="#ededed" d="M0 0h16v2.816H0zm8.947 4.237v2.567H7.079l1.064 1.27q.44.525.907 1.097.493.548.804.923l.337.373-.052-.174a17 17 0 0 1-.077-.723 40 40 0 0 1-.026-1.67V1.246h4.408V16h-4.408v-2.567l.155-.399L7.313 9.67q-.181-.224-.648-.773a268 268 0 0 0-.96-1.171v2.916q0 .348.156.473.155.125.44.125h3.58q.284 0 .44-.125.155-.124.155-.473l.363 1.67q0 .846-.31 1.296-.312.447-1.427.448H4.694q-1.66 0-2.542-.698-.855-.723-.855-2.467V6.903q0-1.37.752-2.018.751-.648 2.878-.648z"/></svg>